<svg xmlns="http://www.w3.org/2000/svg" xmlns:xlink="http://www.w3.org/1999/xlink" width="190" height="235" viewBox="0 0 190 235">
  <defs>
    <clipPath id="clip-path">
      <rect id="Rectángulo_9414" data-name="Rectángulo 9414" width="190" height="235" transform="translate(0 326)" fill="#fff" stroke="#707070" stroke-width="1"/>
    </clipPath>
  </defs>
  <g id="Enmascarar_grupo_3" data-name="Enmascarar grupo 3" transform="translate(0 -326)" clip-path="url(#clip-path)">
    <g id="Grupo_20377" data-name="Grupo 20377" transform="translate(31.742 301.823) rotate(41)">
      <path id="Trazado_10897" data-name="Trazado 10897" d="M59.518,116.676a8.983,8.983,0,0,1-5.265-1.69,8.646,8.646,0,0,1-3.3-4.194L24.539,31.554q-1.428-5.532.092-9.012t6.692-3.48a8.444,8.444,0,0,1,5.619,1.874q2.231,1.874,3.658,6.335L63.09,97.58H56.844L78.078,25.844a10.18,10.18,0,0,1,3.037-4.908A8.635,8.635,0,0,1,87,19.062a8.71,8.71,0,0,1,5.8,1.874,8.876,8.876,0,0,1,2.945,4.908L113.057,93.3H110.38l21.059-66.029q2.494-8.2,9.277-8.209,4.993,0,6.785,3.48,1.776,3.48-.181,9.012L120.9,110.792a7.776,7.776,0,0,1-3.034,4.194,8.859,8.859,0,0,1-5.357,1.69,9.366,9.366,0,0,1-5.351-1.69,7.547,7.547,0,0,1-3.212-4.194L85.568,42.8h1.785L68.078,110.792a7.645,7.645,0,0,1-3.126,4.194A9.193,9.193,0,0,1,59.518,116.676Z" transform="translate(34.629 23.354)" fill="#f9f9fb"/>
      <circle id="Elipse_5" data-name="Elipse 5" cx="7.957" cy="7.957" r="7.957" transform="translate(198.307 5.534)" fill="#f9f9fb"/>
      <g id="Grupo_20344" data-name="Grupo 20344" transform="translate(6.307 5.74)">
        <g id="Grupo_20343" data-name="Grupo 20343" transform="translate(0)">
          <path id="Trazado_10908" data-name="Trazado 10908" d="M29.008,9.922c-51.061,68.771-11.344,168.922,72.858,183.931,83.655,14.914,150.451-66.522,128.91-145.817-2.51-9.244-16.859-5.315-14.34,3.953,18.956,69.773-38.093,137.518-110.615,127.521C29.165,168.945-2.372,76.989,41.848,17.429c5.726-7.713-7.192-15.113-12.84-7.507Z" transform="translate(-6.307 -6.731)" fill="#f9f9fb"/>
        </g>
      </g>
    </g>
  </g>
</svg>
