<svg xmlns="http://www.w3.org/2000/svg" width="374.095" height="60.875" viewBox="0 0 374.095 60.875">
  <g id="wecircular-02" transform="translate(-6.307 -4.993)">
    <g id="Grupo_20342" data-name="Grupo 20342" transform="translate(91.168 4.993)">
      <path id="Trazado_10898" data-name="Trazado 10898" d="M108.452,49.652a2.821,2.821,0,0,1-1.652-.53,2.712,2.712,0,0,1-1.035-1.316L97.48,22.951a4.347,4.347,0,0,1,.028-2.826,2.035,2.035,0,0,1,2.1-1.092,2.651,2.651,0,0,1,1.763.587,4.244,4.244,0,0,1,1.147,1.988l7.054,22.055h-1.959l6.662-22.5a3.179,3.179,0,0,1,.953-1.539,2.706,2.706,0,0,1,1.846-.587,2.734,2.734,0,0,1,1.819.587,2.789,2.789,0,0,1,.924,1.539l5.429,21.16h-.839l6.606-20.712q.782-2.575,2.91-2.575a2.164,2.164,0,0,1,2.127,1.092,3.541,3.541,0,0,1-.056,2.826l-8.286,24.856a2.439,2.439,0,0,1-.952,1.316,2.781,2.781,0,0,1-1.68.53,2.936,2.936,0,0,1-1.678-.53,2.363,2.363,0,0,1-1.008-1.316l-5.766-21.329h.56l-6.046,21.329a2.4,2.4,0,0,1-.98,1.316A2.9,2.9,0,0,1,108.452,49.652Z" transform="translate(-97.263 -5.934)" fill="#353535"/>
      <path id="Trazado_10899" data-name="Trazado 10899" d="M158.451,49.86a16.838,16.838,0,0,1-8.257-1.986,14.53,14.53,0,0,1-5.655-5.487,15.62,15.62,0,0,1-2.042-8.032,16.467,16.467,0,0,1,1.93-8.089,14.128,14.128,0,0,1,5.345-5.487,15.29,15.29,0,0,1,7.837-1.986,14.032,14.032,0,0,1,7.5,1.929A12.6,12.6,0,0,1,169.9,26.04a17.608,17.608,0,0,1,1.651,7.808,2.345,2.345,0,0,1-.727,1.764,2.558,2.558,0,0,1-1.847.7h-22.56V31.833h22.392l-2.3,1.569a11.985,11.985,0,0,0-1.12-5.011,8.159,8.159,0,0,0-7.781-4.785,10.193,10.193,0,0,0-5.458,1.4,9.014,9.014,0,0,0-3.443,3.834,12.527,12.527,0,0,0-1.176,5.514,10.7,10.7,0,0,0,1.4,5.485,10.2,10.2,0,0,0,3.863,3.807,11.245,11.245,0,0,0,5.655,1.4,10.623,10.623,0,0,0,3.555-.643,10.994,10.994,0,0,0,2.938-1.483,3.176,3.176,0,0,1,1.82-.643,2.449,2.449,0,0,1,1.707.587,2.656,2.656,0,0,1,1.008,1.847,1.985,1.985,0,0,1-.9,1.734,15.479,15.479,0,0,1-4.73,2.464A16.919,16.919,0,0,1,158.451,49.86Z" transform="translate(-100.294 -5.918)" fill="#353535"/>
      <path id="Trazado_10900" data-name="Trazado 10900" d="M194.862,49.969a14.846,14.846,0,0,1-7.81-2.072,15.024,15.024,0,0,1-5.429-5.6,15.9,15.9,0,0,1-1.987-7.949,16.993,16.993,0,0,1,1.847-8.005,14.259,14.259,0,0,1,5.093-5.571,13.689,13.689,0,0,1,7.445-2.042,15.41,15.41,0,0,1,6.55,1.372,13.9,13.9,0,0,1,5.151,4.17,1.423,1.423,0,0,1,.336,1.176,1.5,1.5,0,0,1-.728,1.008,1.435,1.435,0,0,1-1.12.308,1.623,1.623,0,0,1-1.065-.643,11.407,11.407,0,0,0-9.124-4.255,10.368,10.368,0,0,0-5.794,1.623,10.864,10.864,0,0,0-3.863,4.422,14.455,14.455,0,0,0-1.372,6.438,13.276,13.276,0,0,0,1.511,6.355,11.606,11.606,0,0,0,4.171,4.477,11.484,11.484,0,0,0,6.187,1.651,13.829,13.829,0,0,0,4.337-.671,9.56,9.56,0,0,0,3.555-2.072,1.914,1.914,0,0,1,1.121-.5,1.277,1.277,0,0,1,1.064.392,1.617,1.617,0,0,1,.588,1.147,1.32,1.32,0,0,1-.476,1.092A14.49,14.49,0,0,1,194.862,49.969Z" transform="translate(-102.782 -5.914)" fill="#353535"/>
      <path id="Trazado_10901" data-name="Trazado 10901" d="M219.769,11.757A2.48,2.48,0,0,1,217.951,11a2.542,2.542,0,0,1-.757-1.875,2.31,2.31,0,0,1,.813-1.931,2.852,2.852,0,0,1,1.818-.643,2.79,2.79,0,0,1,1.764.643,2.32,2.32,0,0,1,.811,1.931,2.583,2.583,0,0,1-2.631,2.631Zm.057,37.059a1.628,1.628,0,0,1-1.68-1.678V19.875a1.611,1.611,0,0,1,.476-1.232,1.7,1.7,0,0,1,1.2-.447,1.548,1.548,0,0,1,1.679,1.678V47.138a1.693,1.693,0,0,1-.448,1.2A1.615,1.615,0,0,1,219.826,48.816Z" transform="translate(-105.299 -5.097)" fill="#353535"/>
      <path id="Trazado_10902" data-name="Trazado 10902" d="M235.493,49.628a1.63,1.63,0,0,1-1.68-1.678V20.687a1.605,1.605,0,0,1,.478-1.232,1.69,1.69,0,0,1,1.2-.447,1.548,1.548,0,0,1,1.679,1.678V47.95a1.684,1.684,0,0,1-.448,1.2A1.607,1.607,0,0,1,235.493,49.628Zm-.559-18.7a15.2,15.2,0,0,1,1.959-6.355,12.177,12.177,0,0,1,4.2-4.338,10.774,10.774,0,0,1,5.709-1.567,8.618,8.618,0,0,1,3.3.5A1.419,1.419,0,0,1,251,20.967a1.148,1.148,0,0,1-.784,1.008,3.553,3.553,0,0,1-1.483.027,12.186,12.186,0,0,0-1.931-.14,10.345,10.345,0,0,0-4.982,1.176,8.742,8.742,0,0,0-3.415,3.22,8.883,8.883,0,0,0-1.23,4.674Z" transform="translate(-106.412 -5.91)" fill="#353535"/>
      <path id="Trazado_10903" data-name="Trazado 10903" d="M271.12,49.969a14.839,14.839,0,0,1-7.808-2.072,15.019,15.019,0,0,1-5.43-5.6,15.906,15.906,0,0,1-1.988-7.949,16.992,16.992,0,0,1,1.847-8.005,14.278,14.278,0,0,1,5.1-5.571,13.681,13.681,0,0,1,7.444-2.042,15.412,15.412,0,0,1,6.551,1.372,13.908,13.908,0,0,1,5.15,4.17,1.417,1.417,0,0,1,.335,1.176,1.5,1.5,0,0,1-.727,1.008,1.436,1.436,0,0,1-1.121.308,1.617,1.617,0,0,1-1.063-.643,11.411,11.411,0,0,0-9.126-4.255,10.369,10.369,0,0,0-5.793,1.623,10.867,10.867,0,0,0-3.863,4.422,14.442,14.442,0,0,0-1.371,6.438,13.264,13.264,0,0,0,1.51,6.355,11.608,11.608,0,0,0,4.171,4.477,11.473,11.473,0,0,0,6.185,1.651,13.83,13.83,0,0,0,4.338-.671,9.571,9.571,0,0,0,3.556-2.072,1.9,1.9,0,0,1,1.119-.5,1.277,1.277,0,0,1,1.064.392,1.615,1.615,0,0,1,.587,1.147,1.315,1.315,0,0,1-.476,1.092A14.49,14.49,0,0,1,271.12,49.969Z" transform="translate(-107.892 -5.914)" fill="#353535"/>
      <path id="Trazado_10904" data-name="Trazado 10904" d="M306.837,50.044a15.474,15.474,0,0,1-7.221-1.651,12.4,12.4,0,0,1-5.066-4.841,15.1,15.1,0,0,1-1.877-7.781V20.711a1.681,1.681,0,1,1,3.361,0V35.771a11.855,11.855,0,0,0,1.427,6.074,9.053,9.053,0,0,0,3.863,3.639,13.181,13.181,0,0,0,10.942.027,9.788,9.788,0,0,0,3.807-3.164,7.631,7.631,0,0,0,1.4-4.506h2.8a12.484,12.484,0,0,1-2.07,6.243,13.3,13.3,0,0,1-4.787,4.366A13.542,13.542,0,0,1,306.837,50.044Zm12.315-.392a1.63,1.63,0,0,1-1.68-1.678V20.711a1.605,1.605,0,0,1,.478-1.232,1.69,1.69,0,0,1,1.2-.447,1.548,1.548,0,0,1,1.679,1.678V47.974a1.684,1.684,0,0,1-.448,1.2A1.609,1.609,0,0,1,319.152,49.652Z" transform="translate(-110.356 -5.934)" fill="#353535"/>
      <path id="Trazado_10905" data-name="Trazado 10905" d="M339.73,48.711a6.345,6.345,0,0,1-3.778-1.176,7.744,7.744,0,0,1-2.577-3.247,11.716,11.716,0,0,1-.922-4.812V6.671a1.6,1.6,0,0,1,.476-1.231,1.683,1.683,0,0,1,1.2-.448,1.663,1.663,0,0,1,1.232.448,1.664,1.664,0,0,1,.448,1.231v32.8A7.51,7.51,0,0,0,336.9,43.7a3.273,3.273,0,0,0,2.826,1.651h1.4a1.278,1.278,0,0,1,1.008.448,1.812,1.812,0,0,1,.392,1.232,1.684,1.684,0,0,1-.448,1.2,1.608,1.608,0,0,1-1.23.476Z" transform="translate(-113.022 -4.993)" fill="#353535"/>
      <path id="Trazado_10906" data-name="Trazado 10906" d="M361.928,49.965a15.816,15.816,0,0,1-8.034-2.044,14.9,14.9,0,0,1-5.6-5.6,15.7,15.7,0,0,1-2.042-7.976,15.834,15.834,0,0,1,2.042-8.034,14.927,14.927,0,0,1,5.6-5.6,16.766,16.766,0,0,1,16.039,0,15.007,15.007,0,0,1,5.569,5.6,15.826,15.826,0,0,1,2.042,8.034l-1.4,2.239a12.676,12.676,0,0,1-1.875,6.828A13.568,13.568,0,0,1,369.2,48.2,14.778,14.778,0,0,1,361.928,49.965Zm0-3.136A11.932,11.932,0,0,0,372.592,40.7a12.713,12.713,0,0,0,1.595-6.355,12.825,12.825,0,0,0-1.595-6.411,12.31,12.31,0,0,0-21.357,0,12.625,12.625,0,0,0-1.623,6.411,12.513,12.513,0,0,0,1.623,6.355,12.106,12.106,0,0,0,10.693,6.129Zm13.995,2.8a1.706,1.706,0,0,1-1.261-.476,1.631,1.631,0,0,1-.476-1.2V37.705l1.065-3.359h2.294v13.6a1.687,1.687,0,0,1-.447,1.2A1.542,1.542,0,0,1,375.923,49.628Z" transform="translate(-113.947 -5.91)" fill="#353535"/>
      <path id="Trazado_10907" data-name="Trazado 10907" d="M390.472,49.628a1.628,1.628,0,0,1-1.68-1.678V20.687a1.611,1.611,0,0,1,.476-1.232,1.694,1.694,0,0,1,1.2-.447,1.548,1.548,0,0,1,1.678,1.678V47.95a1.684,1.684,0,0,1-.448,1.2A1.608,1.608,0,0,1,390.472,49.628Zm-.562-18.7a15.178,15.178,0,0,1,1.961-6.355,12.146,12.146,0,0,1,4.2-4.338,10.769,10.769,0,0,1,5.709-1.567,8.628,8.628,0,0,1,3.3.5,1.42,1.42,0,0,1,.895,1.791,1.151,1.151,0,0,1-.784,1.008A3.555,3.555,0,0,1,403.71,22a12.2,12.2,0,0,0-1.931-.14,10.345,10.345,0,0,0-4.982,1.176,8.717,8.717,0,0,0-3.415,3.22,8.867,8.867,0,0,0-1.231,4.674Z" transform="translate(-116.797 -5.91)" fill="#353535"/>
    </g>
    <g id="Grupo_20345" data-name="Grupo 20345" transform="translate(6.307 6.55)">
      <path id="Trazado_10897" data-name="Trazado 10897" d="M35.035,49.681a2.818,2.818,0,0,1-1.651-.53,2.712,2.712,0,0,1-1.035-1.316L24.063,22.981a4.349,4.349,0,0,1,.029-2.827,2.035,2.035,0,0,1,2.1-1.092,2.649,2.649,0,0,1,1.762.588A4.238,4.238,0,0,1,29.1,21.637l7.054,22.054H34.2l6.661-22.5a3.193,3.193,0,0,1,.953-1.539,3.151,3.151,0,0,1,3.666,0,2.784,2.784,0,0,1,.924,1.539l5.43,21.159h-.84L57.6,21.637q.782-2.574,2.91-2.575a2.167,2.167,0,0,1,2.128,1.092,3.548,3.548,0,0,1-.057,2.827L54.291,47.836a2.439,2.439,0,0,1-.952,1.316,2.779,2.779,0,0,1-1.68.53,2.938,2.938,0,0,1-1.678-.53,2.367,2.367,0,0,1-1.008-1.316L43.207,26.508h.56L37.721,47.836a2.4,2.4,0,0,1-.981,1.316A2.884,2.884,0,0,1,35.035,49.681Z" transform="translate(-7.482 -7.493)" fill="#185ba7"/>
      <circle id="Elipse_5" data-name="Elipse 5" cx="2.496" cy="2.496" r="2.496" transform="translate(60.226)" fill="#185ba7"/>
      <g id="Grupo_20344" data-name="Grupo 20344" transform="translate(0 0.065)">
        <g id="Grupo_20343" data-name="Grupo 20343">
          <path id="Trazado_10908" data-name="Trazado 10908" d="M13.428,7.732C-2.589,29.3,9.869,60.719,36.281,65.427,62.522,70.1,83.474,44.56,76.717,19.687c-.787-2.9-5.288-1.667-4.5,1.24,5.946,21.886-11.949,43.136-34.7,40C13.477,57.614,3.585,28.769,17.455,10.087c1.8-2.419-2.256-4.741-4.028-2.355Z" transform="translate(-6.307 -6.731)" fill="#185ba7"/>
        </g>
      </g>
    </g>
  </g>
</svg>
