<svg xmlns="http://www.w3.org/2000/svg" width="129.964" height="21.149" viewBox="0 0 129.964 21.149">
  <g id="wecircular-02" transform="translate(-6.307 -4.993)">
    <g id="Grupo_20342" data-name="Grupo 20342" transform="translate(35.788 4.993)">
      <path id="Trazado_10898" data-name="Trazado 10898" d="M101.15,29.67a.98.98,0,0,1-.574-.184.942.942,0,0,1-.359-.457l-2.878-8.635a1.51,1.51,0,0,1,.01-.982.707.707,0,0,1,.729-.379.921.921,0,0,1,.613.2,1.474,1.474,0,0,1,.4.691l2.451,7.662h-.681l2.314-7.818a1.1,1.1,0,0,1,.331-.535.94.94,0,0,1,.641-.2.95.95,0,0,1,.632.2.969.969,0,0,1,.321.535l1.886,7.351h-.291l2.295-7.2q.272-.895,1.011-.895a.752.752,0,0,1,.739.379,1.23,1.23,0,0,1-.019.982l-2.879,8.635a.847.847,0,0,1-.331.457.966.966,0,0,1-.584.184,1.02,1.02,0,0,1-.583-.184.821.821,0,0,1-.35-.457l-2-7.41h.194l-2.1,7.41a.834.834,0,0,1-.34.457A1.006,1.006,0,0,1,101.15,29.67Z" transform="translate(-97.263 -14.482)" fill="#353535"/>
      <path id="Trazado_10899" data-name="Trazado 10899" d="M148.04,29.585a5.85,5.85,0,0,1-2.869-.69,5.048,5.048,0,0,1-1.965-1.906,5.426,5.426,0,0,1-.71-2.79,5.721,5.721,0,0,1,.671-2.81,4.908,4.908,0,0,1,1.857-1.906,5.312,5.312,0,0,1,2.723-.69,4.875,4.875,0,0,1,2.606.67,4.378,4.378,0,0,1,1.663,1.848,6.117,6.117,0,0,1,.574,2.713.815.815,0,0,1-.253.613.889.889,0,0,1-.642.243h-7.837V23.323h7.779l-.8.545a4.164,4.164,0,0,0-.389-1.741,2.835,2.835,0,0,0-2.7-1.662,3.541,3.541,0,0,0-1.9.486,3.131,3.131,0,0,0-1.2,1.332,4.352,4.352,0,0,0-.408,1.916,3.717,3.717,0,0,0,.486,1.906,3.543,3.543,0,0,0,1.342,1.322,3.907,3.907,0,0,0,1.965.486,3.69,3.69,0,0,0,1.235-.223,3.82,3.82,0,0,0,1.021-.515,1.1,1.1,0,0,1,.632-.223.851.851,0,0,1,.593.2.923.923,0,0,1,.35.642.69.69,0,0,1-.311.6,5.378,5.378,0,0,1-1.643.856A5.878,5.878,0,0,1,148.04,29.585Z" transform="translate(-127.835 -14.319)" fill="#353535"/>
      <path id="Trazado_10900" data-name="Trazado 10900" d="M184.926,29.583a5.158,5.158,0,0,1-2.713-.72,5.219,5.219,0,0,1-1.886-1.945,5.522,5.522,0,0,1-.69-2.762,5.9,5.9,0,0,1,.642-2.781,4.954,4.954,0,0,1,1.769-1.935,4.756,4.756,0,0,1,2.587-.71,5.353,5.353,0,0,1,2.275.477,4.828,4.828,0,0,1,1.79,1.449.494.494,0,0,1,.117.408.521.521,0,0,1-.253.35.5.5,0,0,1-.389.107.564.564,0,0,1-.37-.223,3.963,3.963,0,0,0-3.17-1.478,3.6,3.6,0,0,0-2.013.564,3.774,3.774,0,0,0-1.342,1.536,5.022,5.022,0,0,0-.477,2.236,4.612,4.612,0,0,0,.525,2.208,4.032,4.032,0,0,0,1.449,1.555,3.99,3.99,0,0,0,2.149.574,4.8,4.8,0,0,0,1.507-.233,3.321,3.321,0,0,0,1.235-.72.665.665,0,0,1,.389-.175.444.444,0,0,1,.37.136.562.562,0,0,1,.2.4.459.459,0,0,1-.165.379A5.034,5.034,0,0,1,184.926,29.583Z" transform="translate(-152.936 -14.278)" fill="#353535"/>
      <path id="Trazado_10901" data-name="Trazado 10901" d="M218.089,8.36a.862.862,0,0,1-.632-.263.883.883,0,0,1-.263-.652.8.8,0,0,1,.282-.671.991.991,0,0,1,.632-.223.969.969,0,0,1,.613.223.806.806,0,0,1,.282.671.9.9,0,0,1-.914.914Zm.02,12.874a.565.565,0,0,1-.584-.583V11.181a.56.56,0,0,1,.165-.428.589.589,0,0,1,.418-.155.538.538,0,0,1,.583.583v9.471a.588.588,0,0,1-.156.418A.561.561,0,0,1,218.108,21.235Z" transform="translate(-178.321 -6.047)" fill="#353535"/>
      <path id="Trazado_10902" data-name="Trazado 10902" d="M234.4,29.426a.566.566,0,0,1-.584-.583V19.371a.558.558,0,0,1,.166-.428.587.587,0,0,1,.418-.155.538.538,0,0,1,.583.583v9.471a.585.585,0,0,1-.156.418A.558.558,0,0,1,234.4,29.426Zm-.194-6.5a5.282,5.282,0,0,1,.681-2.208,4.23,4.23,0,0,1,1.459-1.507,3.743,3.743,0,0,1,1.983-.545,2.994,2.994,0,0,1,1.148.175.493.493,0,0,1,.311.622.4.4,0,0,1-.272.35,1.234,1.234,0,0,1-.515.009,4.234,4.234,0,0,0-.671-.049,3.594,3.594,0,0,0-1.731.408,3.037,3.037,0,0,0-1.186,1.119,3.086,3.086,0,0,0-.427,1.624Z" transform="translate(-189.553 -14.238)" fill="#353535"/>
      <path id="Trazado_10903" data-name="Trazado 10903" d="M261.184,29.583a5.155,5.155,0,0,1-2.713-.72,5.218,5.218,0,0,1-1.886-1.945,5.526,5.526,0,0,1-.691-2.762,5.9,5.9,0,0,1,.642-2.781,4.96,4.96,0,0,1,1.77-1.935,4.753,4.753,0,0,1,2.586-.71,5.354,5.354,0,0,1,2.276.477,4.832,4.832,0,0,1,1.789,1.449.492.492,0,0,1,.116.408.519.519,0,0,1-.253.35.5.5,0,0,1-.389.107.562.562,0,0,1-.369-.223,3.964,3.964,0,0,0-3.17-1.478,3.6,3.6,0,0,0-2.013.564,3.775,3.775,0,0,0-1.342,1.536,5.017,5.017,0,0,0-.476,2.236,4.608,4.608,0,0,0,.525,2.208,4.032,4.032,0,0,0,1.449,1.555,3.986,3.986,0,0,0,2.149.574,4.8,4.8,0,0,0,1.507-.233,3.325,3.325,0,0,0,1.235-.72.661.661,0,0,1,.389-.175.444.444,0,0,1,.37.136.561.561,0,0,1,.2.4.457.457,0,0,1-.165.379A5.034,5.034,0,0,1,261.184,29.583Z" transform="translate(-204.477 -14.278)" fill="#353535"/>
      <path id="Trazado_10904" data-name="Trazado 10904" d="M297.593,29.806a5.376,5.376,0,0,1-2.509-.574,4.307,4.307,0,0,1-1.76-1.682,5.244,5.244,0,0,1-.652-2.7V19.616a.584.584,0,1,1,1.168,0v5.232a4.119,4.119,0,0,0,.5,2.11,3.145,3.145,0,0,0,1.342,1.264,4.579,4.579,0,0,0,3.8.009,3.4,3.4,0,0,0,1.322-1.1,2.651,2.651,0,0,0,.486-1.566h.972a4.337,4.337,0,0,1-.719,2.169,4.621,4.621,0,0,1-1.663,1.517A4.7,4.7,0,0,1,297.593,29.806Zm4.278-.136a.566.566,0,0,1-.584-.583V19.616a.558.558,0,0,1,.166-.428.587.587,0,0,1,.418-.155.538.538,0,0,1,.583.583v9.471a.585.585,0,0,1-.156.418A.559.559,0,0,1,301.871,29.67Z" transform="translate(-229.334 -14.482)" fill="#353535"/>
      <path id="Trazado_10905" data-name="Trazado 10905" d="M334.982,20.181a2.2,2.2,0,0,1-1.312-.408,2.69,2.69,0,0,1-.9-1.128,4.07,4.07,0,0,1-.32-1.672V5.576a.556.556,0,0,1,.165-.428.585.585,0,0,1,.418-.156.538.538,0,0,1,.583.583v11.4A2.609,2.609,0,0,0,334,18.441a1.137,1.137,0,0,0,.982.574h.486a.444.444,0,0,1,.35.156.629.629,0,0,1,.136.428.585.585,0,0,1-.156.418.559.559,0,0,1-.427.165Z" transform="translate(-256.222 -4.993)" fill="#353535"/>
      <path id="Trazado_10906" data-name="Trazado 10906" d="M351.7,29.543a5.5,5.5,0,0,1-2.791-.71,5.177,5.177,0,0,1-1.945-1.945,5.8,5.8,0,0,1,0-5.562,5.186,5.186,0,0,1,1.945-1.945,5.825,5.825,0,0,1,5.572,0,5.213,5.213,0,0,1,1.935,1.945,5.5,5.5,0,0,1,.71,2.791l-.486.778a4.4,4.4,0,0,1-.651,2.372,4.713,4.713,0,0,1-1.76,1.663A5.134,5.134,0,0,1,351.7,29.543Zm0-1.089a4.145,4.145,0,0,0,3.7-2.129,4.715,4.715,0,0,0,0-4.435,4.277,4.277,0,0,0-7.42,0,4.641,4.641,0,0,0,0,4.435,4.206,4.206,0,0,0,3.715,2.129Zm4.862.972a.593.593,0,0,1-.438-.165.567.567,0,0,1-.165-.418V25.284l.37-1.167h.8v4.726a.586.586,0,0,1-.155.418A.536.536,0,0,1,356.561,29.426Z" transform="translate(-265.549 -14.238)" fill="#353535"/>
      <path id="Trazado_10907" data-name="Trazado 10907" d="M389.376,29.426a.565.565,0,0,1-.584-.583V19.371a.56.56,0,0,1,.165-.428.589.589,0,0,1,.418-.155.538.538,0,0,1,.583.583v9.471a.585.585,0,0,1-.156.418A.558.558,0,0,1,389.376,29.426Zm-.2-6.5a5.273,5.273,0,0,1,.681-2.208,4.22,4.22,0,0,1,1.459-1.507,3.741,3.741,0,0,1,1.983-.545,3,3,0,0,1,1.148.175.493.493,0,0,1,.311.622.4.4,0,0,1-.272.35,1.235,1.235,0,0,1-.515.009,4.24,4.24,0,0,0-.671-.049,3.594,3.594,0,0,0-1.731.408,3.028,3.028,0,0,0-1.186,1.119,3.08,3.08,0,0,0-.428,1.624Z" transform="translate(-294.299 -14.238)" fill="#353535"/>
    </g>
    <g id="Grupo_20345" data-name="Grupo 20345">
      <path id="Trazado_10897" data-name="Trazado 10897" d="M27.733,29.7a.979.979,0,0,1-.574-.184.942.942,0,0,1-.359-.457l-2.879-8.635a1.511,1.511,0,0,1,.01-.982.707.707,0,0,1,.729-.379.92.92,0,0,1,.612.2,1.472,1.472,0,0,1,.4.69l2.451,7.662h-.681L29.756,19.8a1.109,1.109,0,0,1,.331-.535,1.095,1.095,0,0,1,1.274,0,.967.967,0,0,1,.321.535l1.886,7.351h-.292l2.295-7.2q.272-.894,1.011-.895a.753.753,0,0,1,.739.379,1.233,1.233,0,0,1-.02.982l-2.879,8.635a.847.847,0,0,1-.331.457.965.965,0,0,1-.584.184,1.021,1.021,0,0,1-.583-.184.822.822,0,0,1-.35-.457l-2-7.409h.194l-2.1,7.409a.833.833,0,0,1-.341.457A1,1,0,0,1,27.733,29.7Z" transform="translate(-11.854 -9.509)" fill="#185ba7"/>
      <circle id="Elipse_5" data-name="Elipse 5" cx="0.867" cy="0.867" r="0.867" transform="translate(27.23 5.534)" fill="#185ba7"/>
      <g id="Grupo_20344" data-name="Grupo 20344" transform="translate(6.307 5.556)">
        <g id="Grupo_20343" data-name="Grupo 20343" transform="translate(0)">
          <path id="Trazado_10908" data-name="Trazado 10908" d="M8.781,7.079a12.741,12.741,0,0,0,7.94,20.044c9.116,1.625,16.4-7.249,14.048-15.89a.811.811,0,0,0-1.563.431,11.009,11.009,0,0,1-12.054,13.9C8.8,24.408,5.361,14.387,10.18,7.9c.624-.84-.784-1.647-1.4-.818Z" transform="translate(-6.307 -6.731)" fill="#185ba7"/>
        </g>
      </g>
    </g>
  </g>
</svg>
