<svg xmlns="http://www.w3.org/2000/svg" xmlns:xlink="http://www.w3.org/1999/xlink" width="375" height="310" viewBox="0 0 375 310">
  <defs>
    <clipPath id="clip-path">
      <rect id="Rectángulo_9411" data-name="Rectángulo 9411" width="375" height="310" transform="translate(445 1917)" fill="none" stroke="#707070" stroke-width="1"/>
    </clipPath>
    <linearGradient id="linear-gradient" y1="0.5" x2="1" y2="0.5" gradientUnits="objectBoundingBox">
      <stop offset="0" stop-color="#fcaaaa"/>
      <stop offset="1" stop-color="#ffcdae"/>
    </linearGradient>
  </defs>
  <g id="Enmascarar_grupo_1" data-name="Enmascarar grupo 1" transform="translate(-445 -1917)" clip-path="url(#clip-path)">
    <g id="Grupo_20349" data-name="Grupo 20349" transform="translate(521.197 2335.117) rotate(-101)">
      <path id="Trazado_10897" data-name="Trazado 10897" d="M83.5,182.3a15.023,15.023,0,0,1-8.8-2.825,14.459,14.459,0,0,1-5.516-7.013L25,39.953q-2.388-9.252.154-15.071,2.522-5.82,11.192-5.82a14.12,14.12,0,0,1,9.4,3.134q3.73,3.134,6.118,10.595L89.473,150.367H79.028L114.538,30.4a17.023,17.023,0,0,1,5.078-8.207q3.581-3.134,9.849-3.134a14.566,14.566,0,0,1,9.694,3.134,14.843,14.843,0,0,1,4.924,8.207l28.949,112.806h-4.477L203.772,32.79q4.171-13.721,15.514-13.728,8.349,0,11.346,5.82,2.97,5.82-.3,15.071L186.154,172.461a13,13,0,0,1-5.074,7.013,14.815,14.815,0,0,1-8.958,2.825,15.663,15.663,0,0,1-8.948-2.825,12.621,12.621,0,0,1-5.372-7.013l-30.74-113.7h2.984l-32.232,113.7a12.785,12.785,0,0,1-5.228,7.013A15.374,15.374,0,0,1,83.5,182.3Z" transform="translate(69.701 48.15)" fill="#f9f9fb"/>
      <circle id="Elipse_5" data-name="Elipse 5" cx="13.306" cy="13.306" r="13.306" transform="translate(327.386 5.534)" fill="#f9f9fb"/>
      <g id="Grupo_20344" data-name="Grupo 20344" transform="translate(6.307 5.879)">
        <g id="Grupo_20343" data-name="Grupo 20343" transform="translate(0)">
          <path id="Trazado_10908" data-name="Trazado 10908" d="M44.269,12.067c-85.389,115-18.971,282.486,121.839,307.585C306,344.591,417.7,208.407,381.683,75.8c-4.2-15.459-28.193-8.889-23.98,6.611C389.4,199.1,294,312.384,172.724,295.666,44.533,278-8.207,124.221,65.742,24.621c9.575-12.9-12.027-25.273-21.473-12.554Z" transform="translate(-6.307 -6.731)" fill="#f9f9fb"/>
        </g>
      </g>
    </g>
    <g id="Grupo_20350" data-name="Grupo 20350" transform="translate(359.637 1967.702)">
      <g id="Grupo_18378" data-name="Grupo 18378" transform="translate(116.86 61.479)">
        <path id="Trazado_10779" data-name="Trazado 10779" d="M1400.448,289.78h-25.934l-.88-2.114v-.012l-4.825-11.707V242.395h24.983S1398.665,268.983,1400.448,289.78Z" transform="translate(-1323.957 -67.258)" fill="#2034aa"/>
        <path id="Trazado_10780" data-name="Trazado 10780" d="M1373.634,287.364l-4.809-7.249-.016-11.756,4.1-7.023S1373.67,278.01,1373.634,287.364Z" transform="translate(-1323.957 -66.968)" fill="#0f267a"/>
        <path id="Trazado_10781" data-name="Trazado 10781" d="M1340,239.876a51.24,51.24,0,0,0-4.4,15.2c-.824,6.568.741,33.1.741,33.1l26.082,4.511s8.8-17.277,14.6-45.575c2.627-12.813-22.565-6.862-22.565-6.862" transform="translate(-1324.469 -67.312)" fill="#2034aa"/>
        <path id="Trazado_10782" data-name="Trazado 10782" d="M1390.642,94.882s.635,5.553-1.229,9.519S1385.2,96,1385.2,96l1.261-4.464" transform="translate(-1323.706 -69.567)" fill="#18004d"/>
        <path id="Trazado_10783" data-name="Trazado 10783" d="M1376.764,121.7s-.27.786-.666,2.049c-.432,1.381-1.014,3.333-1.537,5.463a34.516,34.516,0,0,0-1.264,9.54s-10.1,1.056-15.059-2.088c0,0,3.092-12.105-1.328-23.965Z" transform="translate(-1324.139 -69.243)" fill="url(#linear-gradient)"/>
        <path id="Trazado_10784" data-name="Trazado 10784" d="M1376.04,123.666c-.432,1.381-1.015,3.333-1.537,5.463-8.764-2.838-13.754-10.689-13.754-10.689Z" transform="translate(-1324.08 -69.155)" fill="#e15f60"/>
        <path id="Trazado_10785" data-name="Trazado 10785" d="M1358.614,119.095c3.99,4.632,26.427,14.01,29.532,2.9s1.609-24.273.012-32.289c-.992-4.975-3.649-14.44-16.913-12.976C1358.054,78.185,1341.113,98.769,1358.614,119.095Z" transform="translate(-1324.228 -69.796)" fill="url(#linear-gradient)"/>
        <path id="Trazado_10786" data-name="Trazado 10786" d="M1352.219,88.605s-10.771,1.009-12.777-5.858,5.668-15.617,12.427-12.006,6.042,12.475,6.042,12.475" transform="translate(-1324.411 -69.898)" fill="#18004d"/>
        <path id="Trazado_10787" data-name="Trazado 10787" d="M1347.449,89.368s1.135-10.228,10.863-12.073l-3.642,6.036Z" transform="translate(-1324.284 -69.785)" fill="#005aaf"/>
        <path id="Trazado_10788" data-name="Trazado 10788" d="M1386.6,86.852s-3.7,15.918-25.8,16.59a2.516,2.516,0,0,0-3.012,1.306,6.929,6.929,0,0,0-.1,4.587c1.362,4.262,2.226,8.654,1.519,13.073l.052.5s-10.965-1.378-13.946-17.16c-3.449-18.26,13.187-33.015,24.549-31.26C1374.655,75.231,1385.59,79.264,1386.6,86.852Z" transform="translate(-1324.323 -69.83)" fill="#18004d"/>
        <path id="Trazado_10789" data-name="Trazado 10789" d="M1379.221,86.507s6.888,9.469,12.239,9.735c0,0,1.71-12.907-5.6-18.143-9.982-7.148-21.287-3.4-21.287-3.4" transform="translate(-1324.022 -69.84)" fill="#18004d"/>
        <path id="Trazado_10790" data-name="Trazado 10790" d="M1358.96,133.534a3.845,3.845,0,0,1-1.906,2.769,67.36,67.36,0,0,1-9.6,4.461s21.087,15.148,36.667-.986c0,0-5.637-1.722-7.209-2.857-3.779-2.726-3.039-4.081-3.039-4.081" transform="translate(-1324.284 -68.935)" fill="url(#linear-gradient)"/>
        <path id="Trazado_10791" data-name="Trazado 10791" d="M1384.993,172.425s3.673,11.207,6.677,19.6a40.5,40.5,0,0,0,4.1,8.6c1.579,2.021,3.708,4.479,7.514,2.459s4.383-3.775,3.707-7.632c-.7-4-7.138-26.712-7.138-26.712" transform="translate(-1323.709 -68.385)" fill="#ffbc97"/>
        <path id="Trazado_10792" data-name="Trazado 10792" d="M6.445,30.662s-8.253-.307-6.081,3.9c2.218,4.293,17.658,7.242,21.508,6.388C24.844,39.216,29.865,30.9,32.924,25,42.552,6.43,43.317,2.255,43.317,2.255L38.46,0S19.2,24.753,17.678,27.1" transform="translate(92.394 92.894) rotate(50)" fill="#ffbc97"/>
        <path id="Trazado_10793" data-name="Trazado 10793" d="M1394.286,244c-23.749,5.275-45.628,1.958-55.526.235-1.151-3.271.458-8.616,1.737-13.616,3.877-15.314,2.075-33.044.718-43.54-.535-4.217-1.018-7.258-1.018-8.525-.012-1.006-.078-2.312-.183-3.8-.7-9.1-3.068-25.4-3.264-27.573-.233-2.533,14.426-8.107,14.426-8.107s25.981,15.666,27.639-1.5a93.4,93.4,0,0,1,12.847,5.13c1.1,7.495,1.645,23.8,1.854,32.234.091,3.226-2.7,9.283-2.7,9.283s.417,25.381,1.711,43.893C1392.994,234.825,1394.634,241.414,1394.286,244Z" transform="translate(-1324.448 -68.862)" fill="#fafafa"/>
        <path id="Trazado_10794" data-name="Trazado 10794" d="M1347.368,166.1s-.339,13.029-1.958,19.883a11.678,11.678,0,0,1-4.243.666c-.535-4.217-1.018-7.258-1.018-8.525-.013-1.006-.078-2.312-.183-3.8Z" transform="translate(-1324.398 -68.426)" fill="#e9edf2"/>
        <g id="Grupo_18376" data-name="Grupo 18376" transform="translate(8.332 106.478)">
          <path id="Trazado_10795" data-name="Trazado 10795" d="M1375.107,236.824l-39.449-4.23,6.583-57.52,39.45,4.23Z" transform="translate(-1332.797 -174.766)" fill="#005aaf"/>
          <path id="Trazado_10796" data-name="Trazado 10796" d="M1372.29,236.52l-39.45-4.23,6.584-57.519,39.451,4.23Z" transform="translate(-1332.84 -174.771)" fill="#9fbfff"/>
        </g>
        <g id="Grupo_18377" data-name="Grupo 18377" transform="translate(2.37 102.899)">
          <path id="Trazado_10797" data-name="Trazado 10797" d="M1329.433,171.246s-1.35,11.717-2.133,20.6a40.34,40.34,0,0,0,.132,9.524c.588,2.5,1.492,5.619,5.794,5.376s5.56-1.594,6.56-5.38c1.036-3.928,4.691-27.249,4.691-27.249" transform="translate(-1326.966 -171.246)" fill="#ffbc97"/>
          <path id="Trazado_10798" data-name="Trazado 10798" d="M1327.262,191.969s-1.626,13.154,2.763,17.315c2.851,1.84,9.268,2.329,15.884,2.974,20.822,2.027,24.981,1.185,24.981,1.185l.287-5.348s-30.143-8.671-32.882-9.212" transform="translate(-1326.968 -170.929)" fill="#ffbc97"/>
          <path id="Trazado_10799" data-name="Trazado 10799" d="M1367.522,207.011a7.979,7.979,0,0,0,4.51-.045c1.1-.382,2.372-1.235,3.007-1.442a16.127,16.127,0,0,1,4.491.674c.493.2-.035,1.039-.523,1.184a10.96,10.96,0,0,1-1.943.16l-1.243,1.1-.275,6.492a6.535,6.535,0,0,1-2.559.3c-1.779-.044-3.284-1.772-6.855-2.028" transform="translate(-1326.369 -170.722)" fill="#ffbc97"/>
          <path id="Trazado_10800" data-name="Trazado 10800" d="M1377.408,207.149s1.447.585,1.556,1.084-.414,5.92-1.28,6.571c-.531.4-3.448.556-3.448.556l-.369-1.967s-.065-4.055,0-4.164,1.735-1.475,1.735-1.475l1.8-.606" transform="translate(-1326.251 -170.696)" fill="#ffbc97"/>
        </g>
        <path id="Trazado_10801" data-name="Trazado 10801" d="M1362.859,103.655s-.671-4.9-5.078-3.289c-3.459,1.265-1.141,7.762.162,9.968s3.924,1.627,4.311-.025" transform="translate(-1324.153 -69.437)" fill="#ffaeae"/>
        <path id="Trazado_10802" data-name="Trazado 10802" d="M1404.42,182.283s-6.908-36.869-13.518-39.656c.617,4.189-5.377,14.466-4.925,22.014a103.593,103.593,0,0,0,3.448,20.588C1399.071,184.808,1404.42,182.283,1404.42,182.283Z" transform="translate(-1323.695 -68.785)" fill="#fafafa"/>
        <path id="Trazado_10803" data-name="Trazado 10803" d="M1341.087,143.58s-10.338,4.228-13.256,19.548c-2.726,14.319-3.2,20.218-3.2,20.218s12.067,3.8,19.386,1.8c1.374-4.723,3.788-19.932,3.788-19.932" transform="translate(-1324.633 -68.77)" fill="#fafafa"/>
        <path id="Trazado_10804" data-name="Trazado 10804" d="M1386.736,155.492s3.427,7.452,5.168,12.566-1.849,15.884-1.849,15.884,3.916-6.909,3.427-14.225S1386.736,155.492,1386.736,155.492Z" transform="translate(-1323.683 -68.588)" fill="#e9edf2"/>
        <path id="Trazado_10805" data-name="Trazado 10805" d="M0,17.685a13.067,13.067,0,0,0,1.22-2.6c.126-2.6.14-9.764,1.569-12.37a1.174,1.174,0,0,1,1.419.883C4.634,4.772,3.69,6.91,4.117,8S5.183,8.6,5.961,7.99A23.9,23.9,0,0,0,9.44,2.921C9.877,1.535,10.558-.005,10.86,0c.8.013.66,1.167.584,2.134a15.193,15.193,0,0,1-.513,1.885A14.54,14.54,0,0,1,9.74,6.7s.591-.879,1.711-2.207c.372-.822.751-1.454,1.2-2.566C13.034.54,13.732.34,14.033.623c.273.257.04,1.331-.432,2.981a10.375,10.375,0,0,1-1.156,2.509c-.757,1.17-1.4,1.989-1.4,1.989s.768-1.009,1.7-2.1a12.514,12.514,0,0,0,1.477-2.521c.162-1.764,1.1-2.384,1.341-2.074a6.257,6.257,0,0,1-.127,2.832,7.132,7.132,0,0,1-.963,2.467c-.907,1.311-1.865,2.5-1.865,2.5S15.3,5.6,15.778,6.1c.6.638-2.07,4.3-2.791,5.476A13.816,13.816,0,0,1,9.22,15.5c-1.019.451-3.3,4.237-3.59,5.062" transform="translate(127.847 111.093) rotate(50)" fill="#ffbd98"/>
        <path id="Trazado_10806" data-name="Trazado 10806" d="M0,2.561S1.052.661,1.221.47c.189-.214.64-.686.988-.356.448.424-1.16,3.1-1.16,3.1" transform="matrix(0.883, 0.469, -0.469, 0.883, 126.701, 113.923)" fill="#ffbc97"/>
        <path id="Trazado_10807" data-name="Trazado 10807" d="M1385.139,88.012s-1.684,15.6-22.384,14.86" transform="translate(-1324.049 -69.621)" fill="none" stroke="#18004d" stroke-miterlimit="10" stroke-width="0.878"/>
        <path id="Trazado_10808" data-name="Trazado 10808" d="M1360.388,110.022a1.046,1.046,0,1,1-1.046-1.046A1.046,1.046,0,0,1,1360.388,110.022Z" transform="translate(-1324.118 -69.3)" fill="#fff"/>
        <path id="Trazado_10809" data-name="Trazado 10809" d="M1358.178,103.3a1.724,1.724,0,0,1,2.127.764c1.172,1.7.881,3.5-.441,3.245-.733-.141-.813-1.177-.487-1.769a.916.916,0,0,1,1.067-.438S1359.963,103.057,1358.178,103.3Z" transform="translate(-1324.12 -69.389)" fill="#e15f60"/>
      </g>
      <g id="Grupo_18392" data-name="Grupo 18392" transform="translate(281.669 50.442)">
        <g id="Grupo_18379" data-name="Grupo 18379" transform="translate(78.218 173.506)">
          <path id="Trazado_10810" data-name="Trazado 10810" d="M1514.15,449.114v15.565a21.937,21.937,0,0,0,9.951,0l.738-17.407" transform="translate(-1494.453 -233.555)" fill="#fe9393"/>
          <path id="Trazado_10811" data-name="Trazado 10811" d="M1524.49,462.353s-1.349,1.4-6.231,1.226a6.591,6.591,0,0,0-6.022-1.043s-4.9,4.275-8.365,4.981-7.528,1.117-8.468,2.646a3.162,3.162,0,0,0-.589,2.528s-.234.648,4,.824,17.818-.412,20.17-.3,5.527.177,7-.293S1527.32,465.064,1524.49,462.353Z" transform="translate(-1494.75 -233.327)" fill="#2034aa"/>
          <path id="Trazado_10812" data-name="Trazado 10812" d="M1550.333,287.477a75.421,75.421,0,0,1-.848,7.913c-.763,4.579-2.685,11.845-5,19.956-4.013,13.936-9.27,30.358-12.21,39.855,11.362,23.263-4.848,100.3-6.879,106.692a24.537,24.537,0,0,1-12.029-.619c-2.423-35.5-6.593-107.685-6.55-109.411.943-36.516,5.419-70.181,5.786-75.551.395-5.37.933-35.389,3.5-36.406,5.682-2.12,20.406-7.01,27.05,2.658C1550.079,252.71,1551.182,273.854,1550.333,287.477Z" transform="translate(-1494.566 -236.777)" fill="#2034aa"/>
          <path id="Trazado_10813" data-name="Trazado 10813" d="M1549.8,286.948a75.616,75.616,0,0,1-.848,7.913c-.764,4.579-2.686,11.845-5,19.956-.705-11.5-2.035-43.444-2.035-43.444Z" transform="translate(-1494.028 -236.247)" fill="#102772"/>
        </g>
        <g id="Grupo_18380" data-name="Grupo 18380" transform="translate(118.42 180.279)">
          <path id="Trazado_10814" data-name="Trazado 10814" d="M1560.379,455.3l1.114,15.523a21.876,21.876,0,0,0,9.924-.712l-.509-17.413" transform="translate(-1533.948 -240.246)" fill="#fe9393"/>
          <path id="Trazado_10815" data-name="Trazado 10815" d="M1575.784,477.189c-1.268.839-4.353,1.634-6.675,2.141-1.278.256-5.84,1.666-10.335,3.034a10.848,10.848,0,0,1-5.461.16l-6.5-1.5c-1.211-.281-1.46-1.209-1.3-1.727.4-1.34,1.811-2.217,3.794-2.136a8.3,8.3,0,0,0,1.531-.087,10.849,10.849,0,0,0,6.082-3.151c1.648-1.644,2.881-3.125,2.881-3.125a6.6,6.6,0,0,1,6.078-.568c4.76-1.132,5.675-2.836,5.675-2.836C1575.006,469.262,1577.078,476.357,1575.784,477.189Z" transform="translate(-1534.176 -240.021)" fill="#2034aa"/>
          <path id="Trazado_10816" data-name="Trazado 10816" d="M1572.626,466.407a16.931,16.931,0,0,1-12.54.859c.673,1.6-15.228-80.082-17.092-96.355-.107-1.04-.554-5.378-.655-6.824-.712-8.462.332-50.509.054-67.111l.529-52.991s-15.671-1.457-4.646.426c14.015,2.371,32.845-.526,32.845-.526,18.483,24.985,15.368,48.079,11.815,59.154a106.8,106.8,0,0,0-3.477,13.665c-3.078,17.072-11.153,39-13.107,50.44C1583.4,407.353,1574.116,453.649,1572.626,466.407Z" transform="translate(-1534.346 -243.449)" fill="#2034aa"/>
        </g>
        <g id="Grupo_18382" data-name="Grupo 18382" transform="translate(6.397 71.502)">
          <g id="Grupo_18381" data-name="Grupo 18381" transform="translate(0 53.482)">
            <path id="Trazado_10817" data-name="Trazado 10817" d="M1457.3,197.823l-8.14-1.944a20.063,20.063,0,0,1-4.464-4.091c-2.793-3.166-6.8-2.81-7.634-2.769s-.915,1.1.573,2.118c1,.68,2.732.363,3.325,2.688.265,1.039-2.673,1.078-4.184.566s-6.649-2.954-7.965-3.5-2.424.289,1.009,2.806a44.788,44.788,0,0,0,5.475,3.521,15.646,15.646,0,0,0,1.209,2.142,1.567,1.567,0,0,0,.61.4,13.979,13.979,0,0,0,1.135,1.99,1.117,1.117,0,0,0,.259.221c.314.658.614,1.3.886,1.846,1.06,2.132,5.176,1.533,6.987,1.3s9.567,1.515,9.567,1.515Z" transform="translate(-1423.958 -188.987)" fill="#ffbc97"/>
            <path id="Trazado_10818" data-name="Trazado 10818" d="M1437.556,197.08a20.3,20.3,0,0,1-5.188-1.086c-3.048-1.016-6.932-3.183-7.727-3.272s-.883.928,0,1.723a29.853,29.853,0,0,0,4.814,2.959c1.688.842,9.054,2.738,9.054,2.738" transform="translate(-1424.011 -188.93)" fill="#ffbc97"/>
            <path id="Trazado_10819" data-name="Trazado 10819" d="M1438.608,199.169a20.292,20.292,0,0,1-5.276-.492c-3.144-.666-7.248-2.381-8.048-2.379s-.772,1.021.2,1.711a29.828,29.828,0,0,0,5.118,2.4c1.773.646,9.3,2.508,9.3,2.508" transform="translate(-1424.001 -188.875)" fill="#ffbc97"/>
            <path id="Trazado_10820" data-name="Trazado 10820" d="M1441.131,202.267a20.258,20.258,0,0,1-5.278-.494c-3.142-.664-7.247-2.38-8.047-2.377s-.773,1.02.195,1.711a29.819,29.819,0,0,0,5.117,2.4c1.773.646,9.3,1.7,9.3,1.7" transform="translate(-1423.962 -188.828)" fill="#ffbc97"/>
          </g>
          <path id="Trazado_10821" data-name="Trazado 10821" d="M1529.776,173.385c-4.96,12.3-17.117,32.152-17.117,32.152-7.876.676-18.489-3.077-18.489-3.077,1.371-14.918,14.823-55.27,14.823-55.27s.813-6.37,18.081-10.878" transform="translate(-1422.938 -136.311)" fill="#005aaf"/>
          <path id="Trazado_10822" data-name="Trazado 10822" d="M1502.325,200.913l-48.13-4.235-1.767,9.968s36.391,13.961,49.995,13.956c11.13,0,19.944-31.617,19.944-31.617Z" transform="translate(-1423.577 -135.505)" fill="#005aaf"/>
        </g>
        <g id="Grupo_18387" data-name="Grupo 18387" transform="translate(92.38 69.442)">
          <g id="Grupo_18386" data-name="Grupo 18386">
            <g id="Grupo_18383" data-name="Grupo 18383" transform="translate(0 23.627)">
              <path id="Trazado_10823" data-name="Trazado 10823" d="M1512.207,157.552s-2.418,36.54-3.508,59.387a44.945,44.945,0,0,0,5.24-8.022Z" transform="translate(-1508.699 -157.552)" fill="#9fbfff"/>
            </g>
            <path id="Trazado_10824" data-name="Trazado 10824" d="M1577.1,198.009c-.8,4.275-2.173,11.368-3.436,18.425-.474,2.672-.948,5.332-1.36,7.834-.923,5.613-1.024,10.1-.608,12.614.928,5.62,2.077,8.1.644,9.747-3.194,3.717-25.068,5.27-35.333,5.27-9.146,0-24.7-2.44-25.481-5.368-1.179-4.348.272-4.342.673-8.909s-2.216-89.641,1.379-93.772c4.239-3.523,10.992-6.948,17.758-9.182,4.8-.79,12.947-.45,21.522,1.786,9.96,2.575,21.535,4.761,23.261,8.538C1577.748,148.574,1579.5,185.329,1577.1,198.009Z" transform="translate(-1508.663 -134.282)" fill="#005aaf"/>
            <g id="Grupo_18384" data-name="Grupo 18384" transform="translate(16.877 67.703)">
              <path id="Trazado_10825" data-name="Trazado 10825" d="M1573.449,215.413c-.474,2.672-.948,5.332-1.36,7.834-17.1-6.948-45.892-21.822-46.767-22.283Z" transform="translate(-1525.322 -200.964)" fill="#9fbfff"/>
            </g>
            <g id="Grupo_18385" data-name="Grupo 18385" transform="translate(21.777 39.386)">
              <path id="Trazado_10826" data-name="Trazado 10826" d="M1575.027,207.666l-4.616-25.349-5.138-9.243s.576,9.747,1.411,21.237c-12.1-1.709-36.537-3.941-36.537-3.941s22.631,7.074,23.543,7.276c.738.165,9.908,1.258,13.366,1.667.213,2.786.437,5.605.669,8.354Z" transform="translate(-1530.148 -173.074)" fill="#9fbfff"/>
            </g>
          </g>
        </g>
        <g id="Grupo_18388" data-name="Grupo 18388" transform="translate(83.968 74.725)">
          <path id="Trazado_10827" data-name="Trazado 10827" d="M1512.276,187.159s-7.67,1.769-7.973,2.225-.039,1.708,2.5,1.822a11.084,11.084,0,0,0,5.012-1.215" transform="translate(-1500.355 -138.755)" fill="#ffbc97"/>
          <path id="Trazado_10828" data-name="Trazado 10828" d="M1511.075,191.432l-4.706,3.3s-2.923,3.8-2.771,4.023a1.4,1.4,0,0,0,1.917-.227c.873-.8,2.6-2.448,2.6-2.448l4.535-1.708" transform="translate(-1500.364 -138.69)" fill="url(#linear-gradient)"/>
          <path id="Trazado_10829" data-name="Trazado 10829" d="M1512.987,192.658l-4.706,3.3s-2.923,3.8-2.771,4.024a1.4,1.4,0,0,0,1.916-.227c.874-.8,2.6-2.449,2.6-2.449l4.536-1.708" transform="translate(-1500.334 -138.671)" fill="#ffbc97"/>
          <path id="Trazado_10830" data-name="Trazado 10830" d="M1514.988,193.872l-4.706,3.3s-2.923,3.8-2.771,4.024a1.4,1.4,0,0,0,1.916-.228c.874-.8,2.6-2.448,2.6-2.448l4.536-1.708" transform="translate(-1500.304 -138.653)" fill="#ffbc97"/>
          <path id="Trazado_10831" data-name="Trazado 10831" d="M1530.056,192.23l-7.97-4.1s-8.358-1.011-9.547-1.006-7,4.209-7.837,4.57-4.289,6.691-4.289,6.691a1.026,1.026,0,0,0,1.062.607c.873,0,4.669-4.6,4.669-4.6l4.4-2.39a14.369,14.369,0,0,0,2.5,5.351c1.543,1.894,5.533,1.172,8.581.885a11.958,11.958,0,0,1,3.6.254" transform="translate(-1500.413 -138.756)" fill="#ffbc97"/>
          <path id="Trazado_10832" data-name="Trazado 10832" d="M1596.125,214.754a13.282,13.282,0,0,0,.119-1.61c0-12.719-1.494-46.706-14.844-64.2-5.18-6.789-17.062-9.459-17.062-9.459l.257,31.561c.318,11.784,8.256,43.707,8.256,43.707h23.273Z" transform="translate(-1499.434 -139.485)" fill="#005aaf"/>
          <path id="Trazado_10833" data-name="Trazado 10833" d="M1524.71,193.99a20.062,20.062,0,0,0-.948,6.724s50.8,21.463,65.193,22.941h0l-.544-23.266-61.13-10.8A12.3,12.3,0,0,0,1524.71,193.99Z" transform="translate(-1500.056 -138.718)" fill="#005aaf"/>
          <path id="Trazado_10834" data-name="Trazado 10834" d="M1588.071,223.48s8.558,1.672,7.91-12.7c-.571-12.674-11.9-9.312-11.9-9.312l-2.581,10.476Z" transform="translate(-1499.172 -138.542)" fill="#005aaf"/>
        </g>
        <g id="Grupo_18389" data-name="Grupo 18389" transform="translate(99.606)">
          <path id="Trazado_10835" data-name="Trazado 10835" d="M1552.574,137.009l-.014.023s-9.663,7.285-21.526-1.778c0,0,1.5-2.868,1.757-3.384a25.8,25.8,0,0,0,2.758-7.135c.084-.238.119-.5.192-.778a27.483,27.483,0,0,0,.5-3.407,28.909,28.909,0,0,0-.178-6.989l1.147-.927,18.922-14.881,2.155-1.682s-.625,3.616-1.485,8.911c-.474,3-1.042,6.527-1.6,10.246C1554.1,122.78,1553.017,131.04,1552.574,137.009Z" transform="translate(-1515.583 -65.425)" fill="url(#linear-gradient)"/>
          <path id="Trazado_10836" data-name="Trazado 10836" d="M1549.6,115.406l-.014.023c-2.71,3.933-8.824,11.786-16.81,16.182a25.8,25.8,0,0,0,2.758-7.135,17.355,17.355,0,0,1-3.484.671c.052-.864.1-1.766.068-2.71l1.266-.757,2.839-1.389,14.947-7.28S1550.635,113.932,1549.6,115.406Z" transform="translate(-1515.567 -65.166)" fill="#e15f60"/>
          <path id="Trazado_10837" data-name="Trazado 10837" d="M1519.937,84.931s-3.292,9.018,2.589,14.144l2.811-13.742Z" transform="translate(-1515.767 -65.595)" fill="#18004d"/>
          <path id="Trazado_10838" data-name="Trazado 10838" d="M1552.873,112.147a42.139,42.139,0,0,1-3.091,3.826l-.014.023a35.558,35.558,0,0,1-6.146,5.3,26.032,26.032,0,0,1-7.906,3.742,17.353,17.353,0,0,1-3.484.671,13.283,13.283,0,0,1-7.966-1.512c-4.716-7-4.544-18.352-3.465-26.968.418-3.488,1-6.518,1.45-8.645.414-1.921.735-3.067.735-3.067.02-.083.026-.144.045-.228,2.049-11.125,16.913-11.512,27.138-5.248a18.015,18.015,0,0,1,1.73,1.193,19.85,19.85,0,0,1,6.6,7.741c2.4,5.253.928,11.229-1.528,16.31q-.2.4-.4.809A47.557,47.557,0,0,1,1552.873,112.147Z" transform="translate(-1515.749 -65.733)" fill="url(#linear-gradient)"/>
          <path id="Trazado_10839" data-name="Trazado 10839" d="M1553.548,79.36s-12.118,18.676-32.432,8.855c-5.936-2.869-7.262-23.076-2.048-19.041,10.691,8.277,19.1-7.482,29.367-2.166C1551.733,68.717,1554.975,72.876,1553.548,79.36Z" transform="translate(-1515.816 -65.887)" fill="#18004d"/>
          <path id="Trazado_10840" data-name="Trazado 10840" d="M1549.06,81.607s-7.043,36.663.4,19.826c0,0,1.886-4.7,5.3-4.266s.67,13.047.2,18.389c0,0,7.812-5.588,10.691-22.224s-8.308-23.473-14.5-16.266Z" transform="translate(-1515.354 -65.759)" fill="#18004d"/>
          <path id="Trazado_10841" data-name="Trazado 10841" d="M1554.007,99.4s-1.919.263-2.325,3.778,1.858,4.219,2.31,2.364-1.259-2.972-1.633-2.2A4.332,4.332,0,0,1,1554.007,99.4Z" transform="translate(-1515.268 -65.374)" fill="#e15f60"/>
        </g>
        <g id="Grupo_18390" data-name="Grupo 18390" transform="translate(101.85 30.013)">
          <path id="Trazado_10842" data-name="Trazado 10842" d="M1518.133,97.38a2.447,2.447,0,0,1,2.366-1.922,20.184,20.184,0,0,1,5.559,1.043c1.36.608,2.187,1.729,1.18,4.483-.632,1.727-1.936,3.753-5.524,3.129C1518.7,103.59,1517.667,100.578,1518.133,97.38Z" transform="translate(-1518.026 -95.447)" fill="none" stroke="#435fea" stroke-miterlimit="10" stroke-width="0.627"/>
          <path id="Trazado_10843" data-name="Trazado 10843" d="M1532.933,97.293a25.072,25.072,0,0,1,6.983.911,2.887,2.887,0,0,1,1.9,3.4c-.985,3.554-2.311,5.734-7.186,4.97-4.034-.634-4.1-4.94-3.89-7.418A2.158,2.158,0,0,1,1532.933,97.293Z" transform="translate(-1517.832 -95.419)" fill="none" stroke="#435fea" stroke-miterlimit="10" stroke-width="0.627"/>
          <path id="Trazado_10844" data-name="Trazado 10844" d="M1527.538,99.4a3.673,3.673,0,0,1,3.183.376" transform="translate(-1517.88 -95.389)" fill="none" stroke="#435fea" stroke-miterlimit="10" stroke-width="0.627"/>
          <path id="Trazado_10845" data-name="Trazado 10845" d="M1541.711,101.2s6.894-.765,9.07-1.17" transform="translate(-1517.664 -95.377)" fill="none" stroke="#435fea" stroke-miterlimit="10" stroke-width="0.627"/>
          <path id="Trazado_10846" data-name="Trazado 10846" d="M1549.183,101.587a10.269,10.269,0,0,1,2.8-3.985l-.152,2.285Z" transform="translate(-1517.549 -95.414)" fill="#fe9393"/>
        </g>
        <g id="Grupo_18391" data-name="Grupo 18391" transform="translate(0 79.147)">
          <path id="Trazado_10849" data-name="Trazado 10849" d="M1483.159,143.841a1.549,1.549,0,0,1,1.521,1.252l10.23,52.083" transform="translate(-1416.709 -143.841)" fill="none" stroke="#cfecff" stroke-linecap="round" stroke-miterlimit="10" stroke-width="0.299"/>
          <path id="Trazado_10850" data-name="Trazado 10850" d="M1437.91,143.841" transform="translate(-1417.402 -143.841)" fill="none" stroke="#cfecff" stroke-linecap="round" stroke-miterlimit="10" stroke-width="0.299"/>
          <path id="Trazado_10851" data-name="Trazado 10851" d="M1417.711,183.35" transform="translate(-1417.711 -143.236)" fill="none" stroke="#cfecff" stroke-linecap="round" stroke-miterlimit="10" stroke-width="0.299"/>
        </g>
      </g>
      <rect id="Rectángulo_9397" data-name="Rectángulo 9397" width="364.953" height="239.282" transform="translate(133.905 25.731)" fill="none"/>
      <g id="Grupo_18401" data-name="Grupo 18401" transform="translate(150.211 32.045)">
        <g id="Grupo_18395" data-name="Grupo 18395" transform="translate(163.241 0)">
          <line id="Línea_566" data-name="Línea 566" x2="4.728" transform="translate(0 2.365)" fill="none" stroke="#fff" stroke-linecap="round" stroke-miterlimit="10" stroke-width="0.968"/>
          <line id="Línea_567" data-name="Línea 567" y2="4.729" transform="translate(2.365)" fill="none" stroke="#fff" stroke-linecap="round" stroke-miterlimit="10" stroke-width="0.968"/>
        </g>
        <g id="Grupo_18400" data-name="Grupo 18400" transform="translate(0 202.34)">
          <line id="Línea_576" data-name="Línea 576" x2="4.729" transform="translate(0 2.364)" fill="none" stroke="#fff" stroke-linecap="round" stroke-miterlimit="10" stroke-width="0.968"/>
          <line id="Línea_577" data-name="Línea 577" y2="4.728" transform="translate(2.364)" fill="none" stroke="#fff" stroke-linecap="round" stroke-miterlimit="10" stroke-width="0.968"/>
        </g>
      </g>
      <path id="Trazado_10862" data-name="Trazado 10862" d="M364.953,0V239.282H0Z" transform="translate(0 25.731)" fill="none"/>
      <g id="Grupo_18403" data-name="Grupo 18403" transform="translate(203.52 0)">
        <g id="Grupo_18395-2" data-name="Grupo 18395" transform="translate(0 0)">
          <line id="Línea_566-2" data-name="Línea 566" x1="4.728" transform="translate(0 2.365)" fill="none" stroke="#fff" stroke-linecap="round" stroke-miterlimit="10" stroke-width="0.968"/>
          <line id="Línea_567-2" data-name="Línea 567" y2="4.729" transform="translate(2.364)" fill="none" stroke="#fff" stroke-linecap="round" stroke-miterlimit="10" stroke-width="0.968"/>
        </g>
        <g id="Grupo_18396" data-name="Grupo 18396" transform="translate(27.635 160.826)">
          <line id="Línea_568" data-name="Línea 568" x1="4.729" transform="translate(0 2.364)" fill="none" stroke="#fff" stroke-linecap="round" stroke-miterlimit="10" stroke-width="0.968"/>
          <line id="Línea_569" data-name="Línea 569" y2="4.728" transform="translate(2.364)" fill="none" stroke="#fff" stroke-linecap="round" stroke-miterlimit="10" stroke-width="0.968"/>
        </g>
        <g id="Grupo_18400-2" data-name="Grupo 18400" transform="translate(278.026 146.834)">
          <line id="Línea_576-2" data-name="Línea 576" x1="4.729" transform="translate(0 2.364)" fill="none" stroke="#fff" stroke-linecap="round" stroke-miterlimit="10" stroke-width="0.968"/>
          <line id="Línea_577-2" data-name="Línea 577" y2="4.728" transform="translate(2.365)" fill="none" stroke="#fff" stroke-linecap="round" stroke-miterlimit="10" stroke-width="0.968"/>
        </g>
      </g>
    </g>
    <g id="Grupo_20351" data-name="Grupo 20351" transform="translate(560.693 2048.507)">
      <path id="Trazado_10897-2" data-name="Trazado 10897" d="M43.356,72.45a4.913,4.913,0,0,1-2.879-.924,4.729,4.729,0,0,1-1.8-2.294L24.225,25.895a7.583,7.583,0,0,1,.05-4.929q.825-1.9,3.66-1.9a4.618,4.618,0,0,1,3.073,1.025,7.389,7.389,0,0,1,2,3.465l12.3,38.454H41.894L53.507,22.771a5.568,5.568,0,0,1,1.661-2.684,5.495,5.495,0,0,1,6.392,0,4.855,4.855,0,0,1,1.611,2.684l9.468,36.894H71.174L82.692,23.552q1.364-4.487,5.074-4.49a3.778,3.778,0,0,1,3.711,1.9q.971,1.9-.1,4.929L76.93,69.232a4.253,4.253,0,0,1-1.659,2.294,4.845,4.845,0,0,1-2.93.924,5.123,5.123,0,0,1-2.927-.924,4.128,4.128,0,0,1-1.757-2.294L57.6,32.045h.976L48.038,69.232a4.181,4.181,0,0,1-1.71,2.294A5.028,5.028,0,0,1,43.356,72.45Z" transform="translate(10.993 6.644)" fill="#185ba7"/>
      <circle id="Elipse_5-2" data-name="Elipse 5" cx="4.352" cy="4.352" r="4.352" transform="translate(111.318 5.534)" fill="#185ba7"/>
      <g id="Grupo_20344-2" data-name="Grupo 20344" transform="translate(6.307 5.647)">
        <g id="Grupo_20343-2" data-name="Grupo 20343" transform="translate(0)">
          <path id="Trazado_10908-2" data-name="Trazado 10908" d="M18.723,8.476c-27.927,37.613-6.2,92.388,39.848,100.6,45.753,8.157,82.286-36.383,70.5-79.752-1.373-5.056-9.221-2.907-7.843,2.162C131.6,69.645,100.4,106.7,60.734,101.229,18.809,95.451,1.56,45.157,25.745,12.582c3.132-4.218-3.934-8.266-7.023-4.106Z" transform="translate(-6.307 -6.731)" fill="#185ba7"/>
        </g>
      </g>
    </g>
  </g>
</svg>
