<svg xmlns="http://www.w3.org/2000/svg" xmlns:xlink="http://www.w3.org/1999/xlink" width="686" height="594" viewBox="0 0 686 594">
  <defs>
    <clipPath id="clip-path">
      <rect id="Rectángulo_9406" data-name="Rectángulo 9406" width="686" height="594" transform="translate(445.209 1916.995)" fill="none" stroke="#707070" stroke-width="1"/>
    </clipPath>
    <linearGradient id="linear-gradient" y1="0.5" x2="1" y2="0.5" gradientUnits="objectBoundingBox">
      <stop offset="0" stop-color="#fcaaaa"/>
      <stop offset="1" stop-color="#ffcdae"/>
    </linearGradient>
  </defs>
  <g id="Enmascarar_grupo_1" data-name="Enmascarar grupo 1" transform="translate(-445.209 -1916.995)" clip-path="url(#clip-path)">
    <g id="Grupo_20348" data-name="Grupo 20348" transform="translate(599.093 2704.263) rotate(-101)">
      <path id="Trazado_10909" data-name="Trazado 10909" d="M114.3,312.766a28.784,28.784,0,0,1-16.869-5.413,27.7,27.7,0,0,1-10.569-13.438L2.22,40.027q-4.575-17.726.3-28.877Q7.348,0,23.959,0q10.836,0,18,6,7.148,6,11.722,20.3l72.059,225.278H105.729L173.766,21.729A32.617,32.617,0,0,1,183.5,6q6.862-6,18.87-6,11.422,0,18.575,6a28.44,28.44,0,0,1,9.435,15.725l55.467,216.138h-8.577L344.74,26.3Q352.732.014,374.465,0q16,0,21.739,11.15,5.69,11.151-.581,28.877L310.984,293.915a24.914,24.914,0,0,1-9.721,13.438,28.386,28.386,0,0,1-17.164,5.413,30.011,30.011,0,0,1-17.145-5.413q-8.02-5.446-10.293-13.438l-58.9-217.854h5.718L141.725,293.915c-1.525,5.347-4.86,9.807-10.016,13.438A29.457,29.457,0,0,1,114.3,312.766Z" transform="translate(167.153 118.176)" fill="#f9f9fb"/>
      <circle id="Elipse_6" data-name="Elipse 6" cx="25.494" cy="25.494" r="25.494" transform="translate(615.193 0)" fill="#f9f9fb"/>
      <g id="Grupo_20347" data-name="Grupo 20347" transform="translate(0 0.661)">
        <g id="Grupo_20346" data-name="Grupo 20346" transform="translate(0 0)">
          <path id="Trazado_10910" data-name="Trazado 10910" d="M72.736,10.223C-90.871,230.574,36.387,551.469,306.181,599.559c268.041,47.785,482.063-213.146,413.044-467.215-8.044-29.62-54.018-17.031-45.946,12.666C734.017,368.573,551.225,585.635,318.857,553.6,73.241,519.752-27.809,225.113,113.878,34.277,132.224,9.565,90.834-14.146,72.736,10.223Z" fill="#f9f9fb"/>
        </g>
      </g>
    </g>
    <g id="Grupo_20373" data-name="Grupo 20373" transform="translate(281.439 2014.177)">
      <g id="Grupo_20351" data-name="Grupo 20351" transform="translate(223.906 117.794)">
        <path id="Trazado_10911" data-name="Trazado 10911" d="M1429.43,333.186H1379.74l-1.687-4.05v-.024l-9.245-22.432V242.395h47.867S1426.013,293.338,1429.43,333.186Z" transform="translate(-1282.872 93.17)" fill="#2034aa"/>
        <path id="Trazado_10912" data-name="Trazado 10912" d="M1378.053,311.206l-9.214-13.89-.031-22.525,7.857-13.456S1378.124,293.284,1378.053,311.206Z" transform="translate(-1282.872 111.076)" fill="#0f267a"/>
        <path id="Trazado_10913" data-name="Trazado 10913" d="M1344.25,240.8a98.179,98.179,0,0,0-8.439,29.126c-1.578,12.585,1.42,63.418,1.42,63.418l49.974,8.643s16.86-33.1,27.973-87.322c5.033-24.55-43.235-13.149-43.235-13.149" transform="translate(-1314.5 89.838)" fill="#2034aa"/>
        <path id="Trazado_10914" data-name="Trazado 10914" d="M1395.626,97.945s1.216,10.639-2.354,18.239-8.071-16.092-8.071-16.092l2.416-8.554" transform="translate(-1267.376 -49.44)" fill="#18004d"/>
        <path id="Trazado_10915" data-name="Trazado 10915" d="M1394.951,129.95s-.518,1.506-1.276,3.926c-.827,2.646-1.944,6.387-2.945,10.468-1.514,6.225-2.795,13.225-2.422,18.278,0,0-19.346,2.023-28.853-4,0,0,5.924-23.194-2.544-45.918Z" transform="translate(-1294.12 -29.433)" fill="url(#linear-gradient)"/>
        <path id="Trazado_10916" data-name="Trazado 10916" d="M1390.047,128.453c-.828,2.646-1.944,6.387-2.946,10.468-16.792-5.437-26.354-20.481-26.354-20.481Z" transform="translate(-1290.492 -24.009)" fill="#e15f60"/>
        <path id="Trazado_10917" data-name="Trazado 10917" d="M1365.47,158.041c7.644,8.875,50.634,26.844,56.584,5.556s3.083-46.507.023-61.866c-1.9-9.532-6.992-27.667-32.405-24.861C1364.4,79.657,1331.939,119.1,1365.47,158.041Z" transform="translate(-1299.586 -63.583)" fill="url(#linear-gradient)"/>
        <path id="Trazado_10918" data-name="Trazado 10918" d="M1364.22,105.741s-20.638,1.934-24.48-11.225,10.86-29.923,23.811-23,11.577,23.9,11.577,23.9" transform="translate(-1310.939 -69.898)" fill="#18004d"/>
        <path id="Trazado_10919" data-name="Trazado 10919" d="M1347.449,100.427s2.174-19.6,20.813-23.132l-6.978,11.565Z" transform="translate(-1303.064 -62.906)" fill="#005aaf"/>
        <path id="Trazado_10920" data-name="Trazado 10920" d="M1424.848,98.306s-7.085,30.5-49.437,31.787c0,0-4.182-1.21-5.771,2.5a13.276,13.276,0,0,0-.191,8.789c2.609,8.167,4.264,16.582,2.91,25.048l.1.963s-21.01-2.64-26.722-32.878c-6.608-34.987,25.267-63.257,47.036-59.9C1401.955,76.039,1422.907,83.766,1424.848,98.306Z" transform="translate(-1305.519 -65.69)" fill="#18004d"/>
        <path id="Trazado_10921" data-name="Trazado 10921" d="M1392.641,98.224s13.2,18.142,23.449,18.652c0,0,3.276-24.729-10.735-34.761-19.126-13.7-40.786-6.521-40.786-6.521" transform="translate(-1286.879 -66.289)" fill="#18004d"/>
        <path id="Trazado_10922" data-name="Trazado 10922" d="M1369.5,134.17a7.367,7.367,0,0,1-3.652,5.3c-5.143,3.276-13.872,6.735-18.387,8.548,0,0,40.4,29.024,70.254-1.889,0,0-10.8-3.3-13.813-5.474-7.241-5.223-5.823-7.818-5.823-7.818" transform="translate(-1303.056 -10.396)" fill="url(#linear-gradient)"/>
        <path id="Trazado_10923" data-name="Trazado 10923" d="M1384.993,175.8s7.037,21.473,12.794,37.559c3.1,8.651,6.807,15.111,7.863,16.469,3.025,3.873,7.1,8.581,14.4,4.712s8.4-7.233,7.1-14.623c-1.343-7.667-13.676-51.18-13.676-51.18" transform="translate(-1267.572 23.539)" fill="#ffbc97"/>
        <path id="Trazado_10924" data-name="Trazado 10924" d="M12.349,58.749S-3.464,58.161.7,66.214c4.25,8.225,33.833,13.876,41.209,12.239,5.7-3.315,15.316-19.241,21.176-30.545C81.53,12.32,83,4.321,83,4.321L73.69,0S36.783,47.427,33.871,51.917" transform="translate(177.028 177.987) rotate(50)" fill="#ffbc97"/>
        <path id="Trazado_10925" data-name="Trazado 10925" d="M1446.993,341.494c-45.5,10.106-87.425,3.751-106.388.449-2.206-6.268.878-16.508,3.328-26.089,7.429-29.342,3.976-63.313,1.375-83.424-1.024-8.079-1.951-13.907-1.951-16.333-.023-1.928-.15-4.43-.35-7.281-1.348-17.436-5.879-48.676-6.254-52.83-.447-4.854,27.641-15.534,27.641-15.534s49.779,30.017,52.957-2.877a178.951,178.951,0,0,1,24.614,9.83c2.1,14.36,3.151,45.6,3.552,61.761.175,6.18-5.179,17.786-5.179,17.786s.8,48.63,3.278,84.1C1444.517,323.906,1447.66,336.532,1446.993,341.494Z" transform="translate(-1313.181 -5.919)" fill="#fafafa"/>
        <path id="Trazado_10926" data-name="Trazado 10926" d="M1354.149,166.1s-.65,24.965-3.752,38.1a22.376,22.376,0,0,1-8.13,1.276c-1.025-8.079-1.951-13.907-1.951-16.333-.024-1.928-.15-4.43-.351-7.281Z" transform="translate(-1310.139 21.043)" fill="#e9edf2"/>
        <g id="Grupo_20349" data-name="Grupo 20349" transform="translate(15.965 204.013)">
          <path id="Trazado_10927" data-name="Trazado 10927" d="M1411.243,293.388l-75.585-8.1,12.614-110.208,75.587,8.1Z" transform="translate(-1330.175 -174.483)" fill="#005aaf"/>
          <path id="Trazado_10928" data-name="Trazado 10928" d="M1408.427,293.083l-75.586-8.1,12.614-110.208,75.589,8.1Z" transform="translate(-1332.84 -174.771)" fill="#9fbfff"/>
        </g>
        <g id="Grupo_20350" data-name="Grupo 20350" transform="translate(4.542 197.156)">
          <path id="Trazado_10929" data-name="Trazado 10929" d="M1331.57,171.246s-2.587,22.449-4.087,39.467c-.809,9.153-.14,16.574.253,18.247,1.126,4.784,2.859,10.766,11.1,10.3s10.652-3.054,12.568-10.308c1.985-7.527,8.988-52.209,8.988-52.209" transform="translate(-1326.842 -171.246)" fill="#ffbc97"/>
          <path id="Trazado_10930" data-name="Trazado 10930" d="M1327.532,191.969s-3.116,25.2,5.293,33.176c5.463,3.525,17.757,4.463,30.433,5.7,39.9,3.883,47.864,2.27,47.864,2.27l.55-10.246s-57.755-16.613-63-17.65" transform="translate(-1326.968 -151.656)" fill="#ffbc97"/>
          <path id="Trazado_10931" data-name="Trazado 10931" d="M1368.795,208.409a15.286,15.286,0,0,0,8.642-.086c2.1-.731,4.544-2.365,5.761-2.762s7.663.9,8.6,1.292-.066,1.99-1,2.268a21,21,0,0,1-3.722.307l-2.382,2.1-.527,12.439a12.522,12.522,0,0,1-4.9.582c-3.408-.084-6.292-3.395-13.135-3.885" transform="translate(-1289.945 -138.878)" fill="#ffbc97"/>
          <path id="Trazado_10932" data-name="Trazado 10932" d="M1380.678,207.149s2.773,1.121,2.981,2.078-.793,11.343-2.452,12.59c-1.018.763-6.606,1.066-6.606,1.066l-.708-3.768s-.124-7.77,0-7.978,3.325-2.827,3.325-2.827l3.449-1.161" transform="translate(-1282.661 -137.305)" fill="#ffbc97"/>
        </g>
        <path id="Trazado_10933" data-name="Trazado 10933" d="M1369.173,106.965s-1.286-9.386-9.73-6.3c-6.628,2.424-2.187,14.872.311,19.1s7.519,3.116,8.26-.049" transform="translate(-1295.011 -41.402)" fill="#ffaeae"/>
        <path id="Trazado_10934" data-name="Trazado 10934" d="M1421.336,218.608s-13.236-70.641-25.9-75.981c1.181,8.026-10.3,27.717-9.437,42.179a198.48,198.48,0,0,0,6.606,39.448C1411.088,223.446,1421.336,218.608,1421.336,218.608Z" transform="translate(-1266.666 -1.145)" fill="#fafafa"/>
        <path id="Trazado_10935" data-name="Trazado 10935" d="M1356.159,143.58s-19.808,8.1-25.4,37.454c-5.223,27.435-6.128,38.738-6.128,38.738s23.12,7.276,37.145,3.445c2.632-9.05,7.258-38.191,7.258-38.191" transform="translate(-1324.633 -0.244)" fill="#fafafa"/>
        <path id="Trazado_10936" data-name="Trazado 10936" d="M1386.736,155.492s6.566,14.279,9.9,24.077S1393.1,210,1393.1,210s7.5-13.238,6.565-27.256S1386.736,155.492,1386.736,155.492Z" transform="translate(-1265.925 11.017)" fill="#e9edf2"/>
        <path id="Trazado_10937" data-name="Trazado 10937" d="M0,33.884S2.286,29.947,2.338,28.9c.241-4.99.268-18.708,3.005-23.7A2.249,2.249,0,0,1,8.063,6.887c.815,2.257-.994,6.353-.175,8.435s2.043,1.163,3.533-.012c.914-.724,4.385-5.309,6.667-9.713C18.924,2.941,20.23-.01,20.807,0c1.533.025,1.265,2.235,1.119,4.089A29.112,29.112,0,0,1,20.944,7.7a27.86,27.86,0,0,1-2.282,5.132s1.132-1.685,3.278-4.229c.712-1.576,1.44-2.786,2.307-4.916.727-2.653,2.064-3.037,2.64-2.494.523.492.076,2.55-.827,5.712a19.878,19.878,0,0,1-2.216,4.807c-1.451,2.241-2.685,3.811-2.685,3.811S22.63,13.59,24.424,11.5a23.977,23.977,0,0,0,2.83-4.83c.311-3.379,2.113-4.568,2.57-3.974.34.436.272,2.971-.243,5.426a13.665,13.665,0,0,1-1.846,4.727c-1.737,2.511-3.574,4.8-3.574,4.8s5.155-6.927,6.069-5.962c1.157,1.222-3.966,8.235-5.348,10.491s-5.26,6.649-7.217,7.513-6.328,8.118-6.879,9.7" transform="translate(244.956 212.857) rotate(50)" fill="#ffbd98"/>
        <path id="Trazado_10938" data-name="Trazado 10938" d="M0,4.906S2.015,1.266,2.34.9C2.7.49,3.566-.414,4.233.218c.858.813-2.222,5.947-2.222,5.947" transform="matrix(0.883, 0.469, -0.469, 0.883, 242.761, 218.279)" fill="#ffbc97"/>
        <path id="Trazado_10939" data-name="Trazado 10939" d="M1405.643,88.012s-3.227,29.89-42.887,28.472" transform="translate(-1288.594 -52.774)" fill="none" stroke="#18004d" stroke-miterlimit="10" stroke-width="0.878"/>
        <path id="Trazado_10940" data-name="Trazado 10940" d="M1362.3,110.98a2,2,0,1,1-2-2A2,2,0,0,1,1362.3,110.98Z" transform="translate(-1292.809 -32.956)" fill="#fff"/>
        <path id="Trazado_10941" data-name="Trazado 10941" d="M1358.178,103.405a3.3,3.3,0,0,1,4.076,1.463c2.245,3.258,1.688,6.706-.845,6.217-1.405-.27-1.559-2.255-.932-3.389a1.755,1.755,0,0,1,2.045-.838S1361.6,102.944,1358.178,103.405Z" transform="translate(-1292.922 -38.435)" fill="#e15f60"/>
      </g>
      <g id="Grupo_20365" data-name="Grupo 20365" transform="translate(539.682 96.647)">
        <g id="Grupo_20352" data-name="Grupo 20352" transform="translate(149.867 332.439)">
          <path id="Trazado_10942" data-name="Trazado 10942" d="M1514.15,450.8v29.822a42.031,42.031,0,0,0,19.067,0l1.414-33.353" transform="translate(-1476.411 -37.788)" fill="#fe9393"/>
          <path id="Trazado_10943" data-name="Trazado 10943" d="M1551.731,462.5s-2.586,2.687-11.938,2.348c0,0-5.186-4.27-11.538-2,0,0-9.381,8.192-16.027,9.544s-14.424,2.14-16.224,5.07-1.13,4.844-1.13,4.844-.448,1.241,7.664,1.58,34.14-.79,38.646-.566,10.591.339,13.409-.562S1557.154,467.7,1551.731,462.5Z" transform="translate(-1494.75 -23.686)" fill="#2034aa"/>
          <path id="Trazado_10944" data-name="Trazado 10944" d="M1590.2,333.92a144.4,144.4,0,0,1-1.624,15.162c-1.462,8.774-5.145,22.694-9.587,38.236-7.69,26.7-17.762,58.166-23.394,76.362,21.771,44.572-9.288,192.182-13.181,204.424-10.885,1.895-19.1.22-23.048-1.187-4.642-68.027-12.633-206.327-12.549-209.634,1.806-69.966,10.382-134.468,11.086-144.757.756-10.289,1.787-67.8,6.715-69.754,10.886-4.062,39.1-13.431,51.828,5.093C1589.711,267.305,1591.824,307.817,1590.2,333.92Z" transform="translate(-1483.347 -236.777)" fill="#2034aa"/>
          <path id="Trazado_10945" data-name="Trazado 10945" d="M1557.02,301.215a144.92,144.92,0,0,1-1.624,15.162c-1.463,8.774-5.146,22.694-9.587,38.236-1.352-22.041-3.9-83.239-3.9-83.239Z" transform="translate(-1450.168 -204.072)" fill="#102772"/>
        </g>
        <g id="Grupo_20353" data-name="Grupo 20353" transform="translate(226.894 345.418)">
          <path id="Trazado_10946" data-name="Trazado 10946" d="M1560.379,457.681l2.134,29.743a41.916,41.916,0,0,0,19.015-1.364l-.976-33.363" transform="translate(-1509.736 -45.637)" fill="#fe9393"/>
          <path id="Trazado_10947" data-name="Trazado 10947" d="M1603.554,486.164c-2.43,1.607-8.34,3.13-12.789,4.1-2.45.49-11.189,3.192-19.8,5.813a20.785,20.785,0,0,1-10.463.306l-12.453-2.881c-2.321-.539-2.8-2.317-2.5-3.309.769-2.568,3.47-4.249,7.269-4.093a15.907,15.907,0,0,0,2.933-.167A20.787,20.787,0,0,0,1567.4,479.9c3.157-3.149,5.52-5.988,5.52-5.988,5.5-3.842,11.645-1.087,11.645-1.087,9.119-2.169,10.874-5.433,10.874-5.433C1602.064,470.977,1606.034,484.571,1603.554,486.164Z" transform="translate(-1523.832 -31.748)" fill="#2034aa"/>
          <path id="Trazado_10948" data-name="Trazado 10948" d="M1607.691,670.64a32.439,32.439,0,0,1-24.027,1.646c1.29,3.074-29.176-153.439-32.748-184.617-.206-1.992-1.062-10.3-1.255-13.075-1.364-16.212.636-96.777.1-128.585l1.014-101.531s-30.026-2.792-8.9.817c26.854,4.542,62.932-1.008,62.932-1.008,35.413,47.871,29.444,92.12,22.638,113.339a204.617,204.617,0,0,0-6.663,26.182c-5.9,32.711-21.37,74.732-25.112,96.644C1628.341,557.491,1610.547,646.2,1607.691,670.64Z" transform="translate(-1534.346 -243.449)" fill="#2034aa"/>
        </g>
        <g id="Grupo_20355" data-name="Grupo 20355" transform="translate(12.257 136.999)">
          <g id="Grupo_20354" data-name="Grupo 20354" transform="translate(0 102.473)">
            <path id="Trazado_10949" data-name="Trazado 10949" d="M1484.569,205.917l-15.6-3.725s-3.2-1.772-8.554-7.838-13.022-5.385-14.626-5.3-1.753,2.113,1.1,4.058c1.907,1.3,5.235.7,6.371,5.149.507,1.99-5.122,2.066-8.017,1.084s-12.74-5.659-15.261-6.713-4.644.554,1.934,5.377a85.827,85.827,0,0,0,10.491,6.747,29.976,29.976,0,0,0,2.317,4.1,3,3,0,0,0,1.169.772,26.8,26.8,0,0,0,2.175,3.813,2.136,2.136,0,0,0,.5.424c.6,1.261,1.175,2.484,1.7,3.537,2.031,4.085,9.918,2.937,13.386,2.494s18.331,2.9,18.331,2.9Z" transform="translate(-1420.68 -188.987)" fill="#ffbc97"/>
            <path id="Trazado_10950" data-name="Trazado 10950" d="M1449.962,201.077a38.9,38.9,0,0,1-9.94-2.082c-5.84-1.947-13.281-6.1-14.8-6.27s-1.692,1.778,0,3.3a57.212,57.212,0,0,0,9.223,5.669c3.235,1.613,17.347,5.247,17.347,5.247" transform="translate(-1424.011 -185.462)" fill="#ffbc97"/>
            <path id="Trazado_10951" data-name="Trazado 10951" d="M1451.334,201.8a38.881,38.881,0,0,1-10.109-.944c-6.024-1.276-13.886-4.562-15.42-4.558s-1.48,1.957.374,3.278a57.144,57.144,0,0,0,9.807,4.593c3.4,1.237,17.827,4.8,17.827,4.8" transform="translate(-1423.345 -182.076)" fill="#ffbc97"/>
            <path id="Trazado_10952" data-name="Trazado 10952" d="M1453.857,204.9a38.815,38.815,0,0,1-10.112-.947c-6.021-1.272-13.886-4.56-15.419-4.554s-1.48,1.955.373,3.278a57.13,57.13,0,0,0,9.805,4.591c3.4,1.237,17.828,3.253,17.828,3.253" transform="translate(-1420.961 -179.147)" fill="#ffbc97"/>
          </g>
          <path id="Trazado_10953" data-name="Trazado 10953" d="M1562.391,207.345c-9.5,23.566-32.8,61.6-32.8,61.6-15.09,1.3-35.425-5.9-35.425-5.9,2.627-28.583,28.4-105.9,28.4-105.9s1.558-12.205,34.643-20.842" transform="translate(-1357.688 -136.311)" fill="#005aaf"/>
          <path id="Trazado_10954" data-name="Trazado 10954" d="M1548.031,211.838l-92.219-8.114-3.385,19.1s69.726,26.75,95.791,26.741c21.325-.008,38.214-60.578,38.214-60.578Z" transform="translate(-1397.149 -86.515)" fill="#005aaf"/>
        </g>
        <g id="Grupo_20360" data-name="Grupo 20360" transform="translate(177.002 133.051)">
          <g id="Grupo_20359" data-name="Grupo 20359">
            <g id="Grupo_20356" data-name="Grupo 20356" transform="translate(0 45.269)">
              <path id="Trazado_10955" data-name="Trazado 10955" d="M1515.421,157.552s-4.633,70.011-6.721,113.787a86.111,86.111,0,0,0,10.04-15.37Z" transform="translate(-1508.699 -157.552)" fill="#9fbfff"/>
            </g>
            <path id="Trazado_10956" data-name="Trazado 10956" d="M1637.584,256.384c-1.535,8.192-4.163,21.782-6.583,35.3-.908,5.12-1.817,10.217-2.607,15.01-1.769,10.754-1.963,19.343-1.165,24.169,1.778,10.767,3.98,15.51,1.233,18.675-6.12,7.122-48.031,10.1-67.7,10.1-17.524,0-47.334-4.675-48.822-10.285-2.258-8.33.521-8.32,1.29-17.07.768-8.729-4.247-171.754,2.641-179.668,8.122-6.75,21.06-13.312,34.024-17.594,9.193-1.513,24.807-.862,41.236,3.422,19.083,4.933,41.262,9.122,44.568,16.358C1638.82,161.667,1642.17,232.088,1637.584,256.384Z" transform="translate(-1506.452 -134.282)" fill="#005aaf"/>
            <g id="Grupo_20357" data-name="Grupo 20357" transform="translate(32.337 129.72)">
              <path id="Trazado_10957" data-name="Trazado 10957" d="M1617.535,228.648c-.909,5.12-1.817,10.217-2.606,15.01-32.768-13.312-87.93-41.811-89.607-42.694Z" transform="translate(-1525.322 -200.964)" fill="#9fbfff"/>
            </g>
            <g id="Grupo_20358" data-name="Grupo 20358" transform="translate(41.725 75.464)">
              <path id="Trazado_10958" data-name="Trazado 10958" d="M1616.138,239.354l-8.844-48.569-9.845-17.71s1.1,18.675,2.7,40.691c-23.179-3.274-70.005-7.552-70.005-7.552s43.362,13.553,45.109,13.94c1.414.315,18.984,2.41,25.61,3.194.409,5.338.838,10.74,1.282,16.006Z" transform="translate(-1530.148 -173.074)" fill="#9fbfff"/>
            </g>
          </g>
        </g>
        <g id="Grupo_20361" data-name="Grupo 20361" transform="translate(160.883 143.173)">
          <path id="Trazado_10959" data-name="Trazado 10959" d="M1519.671,187.159s-14.7,3.389-15.277,4.262-.074,3.272,4.8,3.492a21.238,21.238,0,0,0,9.6-2.329" transform="translate(-1496.831 -94.417)" fill="#ffbc97"/>
          <path id="Trazado_10960" data-name="Trazado 10960" d="M1517.93,191.432l-9.018,6.326s-5.6,7.272-5.309,7.707,2,1.091,3.673-.436,4.982-4.69,4.982-4.69l8.69-3.272" transform="translate(-1497.407 -90.377)" fill="url(#linear-gradient)"/>
          <path id="Trazado_10961" data-name="Trazado 10961" d="M1519.841,192.658l-9.016,6.328s-5.6,7.274-5.31,7.709,2,1.091,3.671-.436,4.984-4.692,4.984-4.692l8.69-3.272" transform="translate(-1495.598 -89.218)" fill="#ffbc97"/>
          <path id="Trazado_10962" data-name="Trazado 10962" d="M1521.842,193.872l-9.017,6.326s-5.6,7.272-5.31,7.709,2,1.091,3.671-.438,4.984-4.69,4.984-4.69l8.69-3.272" transform="translate(-1493.707 -88.071)" fill="#ffbc97"/>
          <path id="Trazado_10963" data-name="Trazado 10963" d="M1557.209,196.906l-15.271-7.853s-16.015-1.938-18.292-1.928-13.418,8.065-15.016,8.756-8.218,12.82-8.218,12.82a1.965,1.965,0,0,0,2.035,1.163c1.673,0,8.946-8.812,8.946-8.812l8.435-4.579a27.53,27.53,0,0,0,4.8,10.252c2.956,3.628,10.6,2.245,16.442,1.7a22.91,22.91,0,0,1,6.9.486" transform="translate(-1500.413 -94.449)" fill="#ffbc97"/>
          <path id="Trazado_10964" data-name="Trazado 10964" d="M1625.242,283.7a25.433,25.433,0,0,0,.228-3.085c0-24.369-2.862-89.49-28.441-123.008-9.925-13.008-32.69-18.123-32.69-18.123l.493,60.471c.609,22.578,15.819,83.743,15.819,83.743h44.591Z" transform="translate(-1439.981 -139.485)" fill="#005aaf"/>
          <path id="Trazado_10965" data-name="Trazado 10965" d="M1525.586,198.017c-2.124,5.708-1.817,12.884-1.817,12.884s97.341,41.123,124.911,43.955h0l-1.043-44.577-117.125-20.685S1527.749,192.21,1525.586,198.017Z" transform="translate(-1478.348 -92.115)" fill="#005aaf"/>
          <path id="Trazado_10966" data-name="Trazado 10966" d="M1594.092,244.013s16.4,3.2,15.156-24.332c-1.095-24.284-22.8-17.843-22.8-17.843L1581.5,221.91Z" transform="translate(-1423.76 -81.272)" fill="#005aaf"/>
        </g>
        <g id="Grupo_20362" data-name="Grupo 20362" transform="translate(190.847)">
          <path id="Trazado_10967" data-name="Trazado 10967" d="M1572.305,174.509l-.027.045s-18.514,13.958-41.245-3.406c0,0,2.881-5.5,3.367-6.484a49.433,49.433,0,0,0,5.285-13.67c.16-.455.228-.963.368-1.49a52.59,52.59,0,0,0,.951-6.529,55.379,55.379,0,0,0-.34-13.392l2.2-1.776,36.255-28.513,4.13-3.223s-1.2,6.927-2.846,17.074c-.909,5.756-2,12.507-3.073,19.632C1575.231,147.245,1573.154,163.072,1572.305,174.509Z" transform="translate(-1501.431 -37.353)" fill="url(#linear-gradient)"/>
          <path id="Trazado_10968" data-name="Trazado 10968" d="M1565.676,117.6l-.027.045c-5.192,7.536-16.907,22.581-32.209,31a49.429,49.429,0,0,0,5.285-13.67,33.25,33.25,0,0,1-6.677,1.286c.1-1.656.183-3.383.131-5.192l2.426-1.451,5.439-2.661,28.639-13.948S1567.66,114.774,1565.676,117.6Z" transform="translate(-1500.47 -21.338)" fill="#e15f60"/>
          <path id="Trazado_10969" data-name="Trazado 10969" d="M1520.777,84.931s-6.307,17.279,4.961,27.1l5.386-26.33Z" transform="translate(-1512.788 -47.884)" fill="#18004d"/>
          <path id="Trazado_10970" data-name="Trazado 10970" d="M1582.829,145.28a80.8,80.8,0,0,1-5.923,7.33l-.027.045a68.13,68.13,0,0,1-11.775,10.164,49.879,49.879,0,0,1-15.149,7.171,33.247,33.247,0,0,1-6.676,1.286c-9.638.813-15.263-2.9-15.263-2.9-9.036-13.411-8.707-35.162-6.639-51.67.8-6.682,1.924-12.489,2.777-16.565.794-3.681,1.409-5.877,1.409-5.877.038-.159.05-.276.086-.438,3.926-21.315,32.406-22.056,52-10.056a34.5,34.5,0,0,1,3.315,2.286,38.033,38.033,0,0,1,12.639,14.831c4.595,10.065,1.778,21.515-2.927,31.25q-.386.773-.769,1.55A91.112,91.112,0,0,1,1582.829,145.28Z" transform="translate(-1511.7 -56.349)" fill="url(#linear-gradient)"/>
          <path id="Trazado_10971" data-name="Trazado 10971" d="M1588.11,91.7s-23.218,35.783-62.14,16.967c-11.373-5.5-13.913-44.214-3.924-36.483,20.485,15.858,36.594-14.335,56.267-4.149C1584.634,71.309,1590.845,79.279,1588.11,91.7Z" transform="translate(-1515.816 -65.887)" fill="#18004d"/>
          <path id="Trazado_10972" data-name="Trazado 10972" d="M1551.821,88.378s-13.5,70.246.768,37.987c0,0,3.614-9,10.161-8.174s1.283,25,.391,35.234c0,0,14.969-10.707,20.484-42.582s-15.919-44.974-27.786-31.166Z" transform="translate(-1487.24 -58.013)" fill="#18004d"/>
          <path id="Trazado_10973" data-name="Trazado 10973" d="M1556.181,99.4s-3.677.5-4.455,7.239,3.559,8.083,4.425,4.529-2.411-5.694-3.13-4.214C1553.022,106.955,1552.137,103.045,1556.181,99.4Z" transform="translate(-1481.957 -34.205)" fill="#e15f60"/>
        </g>
        <g id="Grupo_20363" data-name="Grupo 20363" transform="translate(195.146 57.504)">
          <path id="Trazado_10974" data-name="Trazado 10974" d="M1518.231,99.151c.321-2.2,2.318-3.445,4.532-3.683,2-.214,8.939,1.231,10.65,2,2.607,1.165,4.191,3.313,2.26,8.589-1.212,3.309-3.71,7.19-10.585,6C1519.323,111.049,1517.338,105.279,1518.231,99.151Z" transform="translate(-1518.026 -95.447)" fill="none" stroke="#435fea" stroke-miterlimit="10" stroke-width="0.627"/>
          <path id="Trazado_10975" data-name="Trazado 10975" d="M1535,97.3c3.305-.1,10.536.623,13.379,1.745a5.532,5.532,0,0,1,3.635,6.511c-1.887,6.809-4.428,10.987-13.768,9.522-7.729-1.214-7.855-9.466-7.454-14.213A4.136,4.136,0,0,1,1535,97.3Z" transform="translate(-1506.07 -93.706)" fill="none" stroke="#435fea" stroke-miterlimit="10" stroke-width="0.627"/>
          <path id="Trazado_10976" data-name="Trazado 10976" d="M1527.538,99.588a7.037,7.037,0,0,1,6.1.72" transform="translate(-1509.034 -91.896)" fill="none" stroke="#435fea" stroke-miterlimit="10" stroke-width="0.627"/>
          <path id="Trazado_10977" data-name="Trazado 10977" d="M1541.711,102.268s13.208-1.465,17.377-2.241" transform="translate(-1495.636 -91.117)" fill="none" stroke="#435fea" stroke-miterlimit="10" stroke-width="0.627"/>
          <path id="Trazado_10978" data-name="Trazado 10978" d="M1549.183,105.237a19.675,19.675,0,0,1,5.364-7.635l-.292,4.379Z" transform="translate(-1488.571 -93.41)" fill="#fe9393"/>
        </g>
        <g id="Grupo_20364" data-name="Grupo 20364" transform="translate(0 151.647)">
          <path id="Trazado_10979" data-name="Trazado 10979" d="M1483.159,143.841a2.969,2.969,0,0,1,2.915,2.4l19.6,99.792" transform="translate(-1355.84 -143.841)" fill="none" stroke="#cfecff" stroke-linecap="round" stroke-miterlimit="10" stroke-width="0.299"/>
          <path id="Trazado_10980" data-name="Trazado 10980" d="M1437.91,143.841" transform="translate(-1398.616 -143.841)" fill="none" stroke="#cfecff" stroke-linecap="round" stroke-miterlimit="10" stroke-width="0.299"/>
          <path id="Trazado_10981" data-name="Trazado 10981" d="M1417.711,183.35" transform="translate(-1417.711 -106.492)" fill="none" stroke="#cfecff" stroke-linecap="round" stroke-miterlimit="10" stroke-width="0.299"/>
        </g>
      </g>
      <rect id="Rectángulo_9405" data-name="Rectángulo 9405" width="699.255" height="458.469" transform="translate(256.563 49.301)" fill="none"/>
      <g id="Grupo_20368" data-name="Grupo 20368" transform="translate(287.806 61.399)">
        <g id="Grupo_20366" data-name="Grupo 20366" transform="translate(312.772 0)">
          <line id="Línea_578" data-name="Línea 578" x2="9.06" transform="translate(0 4.531)" fill="none" stroke="#fff" stroke-linecap="round" stroke-miterlimit="10" stroke-width="0.968"/>
          <line id="Línea_579" data-name="Línea 579" y2="9.061" transform="translate(4.531)" fill="none" stroke="#fff" stroke-linecap="round" stroke-miterlimit="10" stroke-width="0.968"/>
        </g>
        <g id="Grupo_20367" data-name="Grupo 20367" transform="translate(0 387.687)">
          <line id="Línea_580" data-name="Línea 580" x2="9.06" transform="translate(0 4.53)" fill="none" stroke="#fff" stroke-linecap="round" stroke-miterlimit="10" stroke-width="0.968"/>
          <line id="Línea_581" data-name="Línea 581" y2="9.059" transform="translate(4.529)" fill="none" stroke="#fff" stroke-linecap="round" stroke-miterlimit="10" stroke-width="0.968"/>
        </g>
      </g>
      <path id="Trazado_10982" data-name="Trazado 10982" d="M699.255,0V458.469H0Z" transform="translate(0 49.301)" fill="none"/>
      <g id="Grupo_20372" data-name="Grupo 20372" transform="translate(389.947 0)">
        <g id="Grupo_20369" data-name="Grupo 20369" transform="translate(0 0)">
          <line id="Línea_582" data-name="Línea 582" x1="9.06" transform="translate(0 4.531)" fill="none" stroke="#fff" stroke-linecap="round" stroke-miterlimit="10" stroke-width="0.968"/>
          <line id="Línea_583" data-name="Línea 583" y2="9.061" transform="translate(4.529)" fill="none" stroke="#fff" stroke-linecap="round" stroke-miterlimit="10" stroke-width="0.968"/>
        </g>
        <g id="Grupo_20370" data-name="Grupo 20370" transform="translate(52.949 308.146)">
          <line id="Línea_584" data-name="Línea 584" x1="9.06" transform="translate(0 4.529)" fill="none" stroke="#fff" stroke-linecap="round" stroke-miterlimit="10" stroke-width="0.968"/>
          <line id="Línea_585" data-name="Línea 585" y2="9.06" transform="translate(4.529)" fill="none" stroke="#fff" stroke-linecap="round" stroke-miterlimit="10" stroke-width="0.968"/>
        </g>
        <g id="Grupo_20371" data-name="Grupo 20371" transform="translate(532.702 281.336)">
          <line id="Línea_586" data-name="Línea 586" x1="9.06" transform="translate(0 4.53)" fill="none" stroke="#fff" stroke-linecap="round" stroke-miterlimit="10" stroke-width="0.968"/>
          <line id="Línea_587" data-name="Línea 587" y2="9.059" transform="translate(4.531)" fill="none" stroke="#fff" stroke-linecap="round" stroke-miterlimit="10" stroke-width="0.968"/>
        </g>
      </g>
    </g>
    <g id="Grupo_20376" data-name="Grupo 20376" transform="translate(678.75 2179.603)">
      <path id="Trazado_10983" data-name="Trazado 10983" d="M61.228,121.354a9.414,9.414,0,0,1-5.517-1.77,9.061,9.061,0,0,1-3.457-4.395L24.572,32.153q-1.5-5.8.1-9.444t7.013-3.647a8.848,8.848,0,0,1,5.888,1.964q2.338,1.964,3.834,6.639l23.567,73.678H58.425L80.677,26.169a10.668,10.668,0,0,1,3.182-5.143,9.048,9.048,0,0,1,6.172-1.964,9.127,9.127,0,0,1,6.075,1.964,9.3,9.3,0,0,1,3.086,5.143l18.141,70.689h-2.805L136.6,27.665q2.614-8.6,9.722-8.6,5.232,0,7.11,3.647,1.861,3.647-.19,9.444l-27.682,83.035a8.148,8.148,0,0,1-3.179,4.395,9.284,9.284,0,0,1-5.614,1.77,9.815,9.815,0,0,1-5.607-1.77,7.909,7.909,0,0,1-3.366-4.395L88.526,43.938H90.4l-20.2,71.25a8.012,8.012,0,0,1-3.276,4.395A9.634,9.634,0,0,1,61.228,121.354Z" transform="translate(30.822 19.588)" fill="#185ba7"/>
      <circle id="Elipse_7" data-name="Elipse 7" cx="8.338" cy="8.338" r="8.338" transform="translate(201.202 0)" fill="#185ba7"/>
      <g id="Grupo_20375" data-name="Grupo 20375" transform="translate(0 0.216)">
        <g id="Grupo_20374" data-name="Grupo 20374" transform="translate(0)">
          <path id="Trazado_10984" data-name="Trazado 10984" d="M30.1,10.075c-53.509,72.067-11.888,177.018,76.35,192.746,87.664,15.628,157.661-69.71,135.088-152.805-2.631-9.687-17.667-5.57-15.027,4.142,19.864,73.117-39.919,144.109-115.916,133.633C30.261,176.719-2.788,80.356,43.551,17.942c6-8.082-7.537-15.837-13.456-7.867Z" transform="translate(-6.307 -6.731)" fill="#185ba7"/>
        </g>
      </g>
    </g>
  </g>
</svg>
