<svg xmlns="http://www.w3.org/2000/svg" xmlns:xlink="http://www.w3.org/1999/xlink" width="225" height="229" viewBox="0 0 225 229">
  <defs>
    <clipPath id="clip-path">
      <rect id="Rectángulo_9415" data-name="Rectángulo 9415" width="225" height="229" transform="translate(0 706)" fill="#fff" stroke="#707070" stroke-width="1"/>
    </clipPath>
  </defs>
  <g id="Enmascarar_grupo_4" data-name="Enmascarar grupo 4" transform="translate(0 -706)" clip-path="url(#clip-path)">
    <g id="Grupo_20377" data-name="Grupo 20377" transform="translate(28.741 682.823) rotate(41)">
      <path id="Trazado_10897" data-name="Trazado 10897" d="M67.846,139.465a11.081,11.081,0,0,1-6.494-2.084,10.665,10.665,0,0,1-4.069-5.173L24.7,34.471q-1.761-6.824.114-11.116t8.255-4.292A10.415,10.415,0,0,1,40,21.373q2.752,2.311,4.513,7.815l27.74,86.723h-7.7L90.739,27.427a12.556,12.556,0,0,1,3.746-6.054,10.65,10.65,0,0,1,7.264-2.311,10.743,10.743,0,0,1,7.151,2.311,10.948,10.948,0,0,1,3.632,6.054l21.352,83.2h-3.3l25.975-81.444Q159.634,19.068,168,19.062q6.158,0,8.369,4.292,2.19,4.293-.224,11.116l-32.583,97.737a9.591,9.591,0,0,1-3.742,5.173,10.927,10.927,0,0,1-6.608,2.084,11.553,11.553,0,0,1-6.6-2.084,9.309,9.309,0,0,1-3.962-5.173L99.977,48.343h2.2L78.4,132.208a9.43,9.43,0,0,1-3.856,5.173A11.34,11.34,0,0,1,67.846,139.465Z" transform="translate(46.808 31.965)" fill="#f9f9fb"/>
      <circle id="Elipse_5" data-name="Elipse 5" cx="9.814" cy="9.814" r="9.814" transform="translate(243.132 5.534)" fill="#f9f9fb"/>
      <g id="Grupo_20344" data-name="Grupo 20344" transform="translate(6.307 5.788)">
        <g id="Grupo_20343" data-name="Grupo 20343" transform="translate(0)">
          <path id="Trazado_10908" data-name="Trazado 10908" d="M34.307,10.667c-62.982,84.826-13.993,208.359,89.867,226.871,103.185,18.4,185.575-82.053,159.006-179.859-3.1-11.4-20.795-6.556-17.687,4.876,23.381,86.063-46.986,169.623-136.439,157.293C34.5,206.816-4.4,93.391,50.146,19.927c7.062-9.513-8.871-18.641-15.838-9.26Z" transform="translate(-6.307 -6.731)" fill="#f9f9fb"/>
        </g>
      </g>
    </g>
  </g>
</svg>
